{"glyphs":{"0":{"ha":1051,"x_min":41,"x_max":1010,"o":"m 68 485 q 202 808 68 674 q 526 943 336 943 q 849 808 715 943 q 983 485 983 674 q 849 161 983 296 q 526 27 715 27 q 202 161 336 27 q 68 485 68 296 m 1010 485 q 868 827 1010 686 q 526 970 726 970 q 183 827 325 970 q 41 485 41 686 q 183 142 41 284 q 526 0 325 0 q 868 142 726 0 q 1010 485 1010 284 m 310 485 q 373 637 310 574 q 526 701 437 701 q 678 637 614 701 q 741 485 741 574 q 678 332 741 396 q 526 269 614 269 q 373 332 437 269 q 310 485 310 396 m 768 485 q 697 656 768 585 q 526 728 626 728 q 354 656 425 728 q 283 485 283 585 q 354 313 283 385 q 526 243 425 243 q 697 313 626 243 q 768 485 768 385 z "},"1":{"ha":653,"x_min":41,"x_max":612,"o":"m 365 970 l 41 696 l 215 490 l 343 599 l 343 0 l 612 0 l 612 970 l 365 970 m 79 692 l 375 943 l 586 943 l 586 27 l 370 27 l 370 656 l 326 619 l 218 528 l 79 692 z "},"2":{"ha":836,"x_min":41,"x_max":795,"o":"m 768 27 l 68 27 l 68 229 q 69 229 67 229 q 73 232 73 231 q 155 285 101 249 q 176 299 169 294 q 271 357 207 319 q 349 404 323 388 q 461 545 445 465 q 431 669 475 613 q 316 727 386 726 l 68 728 l 68 943 l 321 943 q 547 860 450 940 q 667 674 635 787 q 662 451 699 561 q 552 290 630 356 l 496 243 l 768 243 l 768 27 m 795 269 l 570 269 q 688 442 653 340 q 692 682 727 560 q 564 881 658 803 q 321 970 460 966 l 41 970 l 41 701 l 315 701 q 410 653 372 699 q 435 550 447 607 q 334 427 421 482 q 248 374 310 411 q 161 321 192 342 q 59 255 81 269 l 41 243 l 41 0 l 795 0 l 795 269 z "},"3":{"ha":836,"x_min":41,"x_max":795,"o":"m 718 470 q 768 310 768 397 q 685 110 768 193 q 485 27 602 27 l 68 27 l 68 243 l 485 243 q 533 262 513 243 q 553 310 553 282 q 533 357 553 338 q 485 377 513 377 l 283 377 l 283 593 l 485 593 q 533 612 513 593 q 553 660 553 632 q 533 707 553 688 q 485 728 513 728 l 68 728 l 68 943 l 485 943 q 685 860 602 943 q 768 660 768 777 q 718 500 768 572 l 708 485 l 718 470 m 41 970 l 41 701 l 485 701 q 514 688 502 701 q 526 660 526 677 q 514 631 526 644 q 485 620 502 620 l 256 620 l 256 350 l 485 350 q 514 338 502 350 q 526 310 526 326 q 514 281 526 293 q 485 269 502 269 l 41 269 l 41 0 l 485 0 q 704 91 613 0 q 795 310 795 182 q 741 485 795 406 q 795 660 795 564 q 704 879 795 788 q 485 970 613 970 l 41 970 z "},"4":{"ha":863,"x_min":41,"x_max":822,"o":"m 41 970 l 41 216 l 418 216 l 418 0 l 687 0 l 687 216 l 822 216 l 822 485 l 687 485 l 687 620 l 418 620 l 418 485 l 310 485 l 310 970 l 41 970 m 68 943 l 283 943 l 283 458 l 445 458 l 445 593 l 661 593 l 661 458 l 795 458 l 795 243 l 661 243 l 661 27 l 445 27 l 445 243 l 68 243 l 68 943 z "},"5":{"ha":876,"x_min":41,"x_max":836,"o":"m 68 243 l 526 243 q 573 262 553 243 q 593 310 593 282 q 573 357 593 338 q 526 377 553 377 l 68 377 l 68 943 l 741 943 l 741 728 l 283 728 l 283 593 l 526 593 q 726 510 643 593 q 808 310 808 427 q 726 110 808 193 q 526 27 643 27 l 68 27 l 68 243 m 836 310 q 745 529 836 438 q 526 620 654 620 l 310 620 l 310 701 l 768 701 l 768 970 l 41 970 l 41 350 l 526 350 q 554 338 543 350 q 566 310 566 326 q 554 281 566 293 q 526 269 543 269 l 41 269 l 41 0 l 526 0 q 745 91 654 0 q 836 310 836 182 z "},"6":{"ha":859,"x_min":41,"x_max":819,"o":"m 471 427 q 526 404 503 427 q 549 348 549 380 q 526 292 549 315 q 471 269 503 269 l 389 269 q 333 292 356 269 q 310 348 310 315 q 333 404 310 380 q 389 427 356 427 l 471 427 m 471 243 q 545 273 515 243 q 576 348 576 304 q 545 422 576 392 q 471 454 515 454 l 389 454 q 314 422 345 454 q 283 348 283 392 q 314 273 283 304 q 389 243 345 243 l 471 243 m 68 337 l 68 943 l 283 943 l 283 653 l 316 661 q 389 669 352 669 l 471 669 q 698 575 604 669 q 792 348 792 481 q 698 121 792 215 q 471 27 604 27 l 389 27 q 170 114 262 27 q 68 325 77 200 l 68 337 m 471 0 q 717 102 614 0 q 819 348 819 204 q 717 594 819 492 q 471 696 614 696 l 389 696 q 310 687 349 696 l 310 970 l 41 970 l 41 323 l 41 323 q 151 94 51 188 q 389 0 252 0 l 471 0 z "},"7":{"ha":863,"x_min":41,"x_max":822,"o":"m 41 970 l 41 701 l 391 701 l 50 0 l 350 0 l 822 970 l 41 970 m 68 943 l 779 943 l 333 27 l 94 27 l 415 688 l 434 728 l 68 728 l 68 943 z "},"8":{"ha":876,"x_min":41,"x_max":835,"o":"m 350 269 q 322 281 334 269 q 310 309 310 293 q 322 338 310 326 q 350 350 334 350 l 525 350 q 553 338 542 350 q 566 309 566 326 q 553 281 566 293 q 525 269 542 269 l 350 269 m 350 376 q 303 357 323 376 q 283 309 283 337 q 303 262 283 282 q 350 243 323 243 l 525 243 q 572 262 553 243 q 592 309 592 282 q 572 357 592 337 q 525 376 553 376 l 350 376 m 350 626 q 322 638 334 626 q 310 666 310 650 q 322 694 310 683 q 350 707 334 707 l 525 707 q 553 694 542 707 q 566 666 566 683 q 553 638 566 650 q 525 626 542 626 l 350 626 m 350 733 q 303 713 323 733 q 283 666 283 694 q 303 619 283 639 q 350 600 323 600 l 525 600 q 572 619 553 600 q 592 666 592 639 q 572 713 592 694 q 525 733 553 733 l 350 733 m 756 473 q 808 309 808 399 q 725 110 808 193 q 525 27 642 27 l 350 27 q 151 110 233 27 q 68 309 68 193 q 119 473 68 399 l 130 488 l 119 503 q 68 666 68 576 q 151 866 68 783 q 350 949 233 949 l 525 949 q 725 866 642 949 q 808 666 808 783 q 756 503 808 576 l 745 488 l 756 473 m 350 976 q 132 885 222 976 q 41 666 41 794 q 98 488 41 568 q 41 309 41 408 q 132 91 41 182 q 350 0 222 0 l 525 0 q 744 91 653 0 q 835 309 835 182 q 778 488 835 408 q 835 666 835 568 q 744 885 835 794 q 525 976 653 976 l 350 976 z "},"9":{"ha":859,"x_min":41,"x_max":819,"o":"m 792 27 l 576 27 l 576 317 l 543 309 q 471 300 508 300 l 389 300 q 162 395 256 300 q 68 622 68 489 q 162 849 68 755 q 389 943 256 943 l 471 943 q 690 856 597 943 q 791 645 782 770 l 792 633 l 792 27 m 819 646 l 818 646 q 709 876 808 783 q 471 970 608 970 l 389 970 q 142 868 245 970 q 41 622 41 766 q 142 376 41 478 q 389 274 245 274 l 471 274 q 549 283 511 274 l 549 0 l 819 0 l 819 646 m 389 543 q 333 566 356 543 q 310 622 310 589 q 333 677 310 654 q 389 701 356 701 l 471 701 q 526 677 503 701 q 549 622 549 654 q 526 566 549 589 q 471 543 503 543 l 389 543 m 389 728 q 314 696 345 728 q 283 622 283 665 q 314 547 283 578 q 389 516 345 516 l 471 516 q 545 547 515 516 q 576 622 576 578 q 545 696 576 665 q 471 728 515 728 l 389 728 z "},"\u0000":{"ha":0,"x_min":0,"x_max":0,"o":""},"\u001d":{"ha":0,"x_min":0,"x_max":0,"o":""}," ":{"ha":345,"x_min":0,"x_max":0,"o":""}," ":{"ha":345,"x_min":0,"x_max":0,"o":""},"!":{"ha":351,"x_min":41,"x_max":310,"o":"m 41 0 l 310 0 l 310 269 l 41 269 l 41 0 m 68 243 l 283 243 l 283 27 l 68 27 l 68 243 m 41 323 l 310 323 l 310 970 l 41 970 l 41 323 m 68 943 l 283 943 l 283 350 l 68 350 l 68 943 z "},"\"":{"ha":418,"x_min":41,"x_max":378,"o":"m 41 825 l 187 825 l 187 1119 l 41 1119 l 41 825 m 66 1094 l 162 1094 l 162 850 l 66 850 l 66 1094 m 231 825 l 378 825 l 378 1119 l 231 1119 l 231 825 m 256 1094 l 353 1094 l 353 850 l 256 850 l 256 1094 z "},"#":{"ha":1105,"x_min":41,"x_max":1065,"o":"m 633 970 l 618 795 l 538 795 l 553 970 l 283 970 l 269 795 l 68 795 l 68 526 l 246 526 l 239 444 l 41 444 l 41 175 l 217 175 l 202 0 l 472 0 l 486 175 l 567 175 l 553 0 l 822 0 l 837 175 l 1038 175 l 1038 444 l 859 444 l 866 526 l 1065 526 l 1065 795 l 888 795 l 903 970 l 633 970 m 644 768 l 646 793 l 658 943 l 873 943 l 861 797 l 859 768 l 1038 768 l 1038 552 l 841 552 l 839 528 l 832 447 l 829 418 l 1010 418 l 1010 202 l 812 202 l 810 178 l 797 27 l 582 27 l 594 173 l 596 202 l 462 202 l 460 178 l 447 27 l 232 27 l 243 173 l 246 202 l 68 202 l 68 418 l 264 418 l 267 442 l 273 523 l 275 552 l 94 552 l 94 768 l 294 768 l 296 793 l 308 943 l 524 943 l 511 797 l 509 768 l 644 768 z "},"$":{"ha":801,"x_min":41,"x_max":760,"o":"m 111 125 l 111 287 l 513 287 q 555 304 538 287 q 572 345 572 321 q 555 387 572 370 q 513 404 538 404 l 288 404 q 132 469 197 404 q 68 625 68 533 q 132 780 68 715 q 288 845 197 845 l 320 845 l 320 943 l 481 943 l 481 845 l 690 845 l 690 683 l 288 683 q 246 666 264 683 q 229 625 229 649 q 246 583 229 600 q 288 566 264 566 l 513 566 q 669 501 604 566 q 734 345 734 437 q 669 190 734 254 q 513 125 604 125 l 481 125 l 481 27 l 320 27 l 320 125 l 111 125 m 509 0 l 509 98 l 513 98 q 688 171 616 98 q 760 345 760 243 q 688 520 760 448 q 513 593 616 593 l 288 593 q 266 602 275 593 q 256 625 256 611 q 266 647 256 637 q 288 656 275 656 l 717 656 l 717 871 l 509 871 l 509 970 l 293 970 l 293 871 l 288 871 q 113 799 186 871 q 41 625 41 727 q 113 450 41 522 q 288 377 186 377 l 513 377 q 536 368 526 377 q 545 345 545 359 q 536 323 545 332 q 513 314 526 314 l 84 314 l 84 98 l 293 98 l 293 0 l 509 0 z "},"%":{"ha":1024,"x_min":41,"x_max":983,"o":"m 445 970 l 310 0 l 579 0 l 714 970 l 445 970 m 468 943 l 683 943 l 556 27 l 341 27 l 468 943 m 41 404 l 310 404 l 310 673 l 41 673 l 41 404 m 68 646 l 283 646 l 283 431 l 68 431 l 68 646 m 714 243 l 983 243 l 983 512 l 714 512 l 714 243 m 741 485 l 957 485 l 957 269 l 741 269 l 741 485 z "},"&":{"ha":916,"x_min":41,"x_max":876,"o":"m 795 27 l 351 27 q 151 110 233 27 q 68 310 68 193 q 117 470 68 397 l 127 485 l 117 500 q 68 660 68 572 q 151 860 68 777 q 351 943 233 943 l 661 943 l 661 728 l 351 728 q 303 707 323 728 q 283 660 283 688 q 303 612 283 632 q 351 593 323 593 l 579 593 l 579 620 l 795 620 l 795 593 l 849 593 l 849 377 l 795 377 l 795 27 m 822 350 l 876 350 l 876 620 l 822 620 l 822 646 l 553 646 l 553 620 l 351 620 q 322 631 334 620 q 310 660 310 644 q 322 688 310 677 q 351 701 334 701 l 687 701 l 687 970 l 351 970 q 132 879 222 970 q 41 660 41 788 q 95 485 41 564 q 41 310 41 406 q 132 91 41 182 q 351 0 222 0 l 822 0 l 822 350 m 553 269 l 351 269 q 322 281 334 269 q 310 310 310 293 q 322 338 310 326 q 351 350 334 350 l 553 350 l 553 269 m 351 377 q 303 357 323 377 q 283 310 283 338 q 303 262 283 282 q 351 243 323 243 l 579 243 l 579 377 l 351 377 z "},"'":{"ha":228,"x_min":41,"x_max":187,"o":"m 41 817 l 187 817 l 187 1112 l 41 1112 l 41 817 m 66 1086 l 162 1086 l 162 842 l 66 842 l 66 1086 z "},"(":{"ha":458,"x_min":41,"x_max":418,"o":"m 391 -85 l 391 -300 l 364 -300 q 155 -214 241 -300 q 68 -4 68 -127 l 68 966 q 155 1175 68 1088 q 364 1262 241 1262 l 391 1262 l 391 1046 l 364 1046 q 307 1023 330 1046 q 283 966 283 999 l 283 -4 q 307 -62 283 -38 q 364 -85 330 -85 l 391 -85 m 310 966 q 326 1004 310 988 q 364 1019 342 1019 l 418 1019 l 418 1289 l 364 1289 q 136 1194 231 1289 q 41 966 41 1099 l 41 -4 q 136 -233 41 -138 q 364 -328 231 -328 l 418 -328 l 418 -58 l 364 -58 q 326 -42 342 -58 q 310 -4 310 -26 l 310 966 z "},")":{"ha":458,"x_min":41,"x_max":418,"o":"m 68 1048 l 68 1263 l 94 1263 q 304 1177 217 1263 q 391 967 391 1089 l 391 -3 q 304 -212 391 -125 q 94 -299 217 -299 l 68 -299 l 68 -83 l 94 -83 q 152 -60 128 -83 q 176 -3 176 -37 l 176 967 q 152 1024 176 1000 q 94 1048 128 1048 l 68 1048 m 149 -3 q 133 -41 149 -25 q 94 -57 117 -57 l 41 -57 l 41 -326 l 94 -326 q 323 -231 229 -326 q 418 -3 418 -136 l 418 967 q 323 1196 418 1101 q 94 1290 229 1290 l 41 1290 l 41 1021 l 94 1021 q 133 1005 117 1021 q 149 967 149 989 l 149 -3 z "},"*":{"ha":348,"x_min":41,"x_max":307,"o":"m 134 972 l 134 910 l 80 940 l 41 869 l 91 842 l 41 813 l 80 743 l 134 772 l 134 711 l 214 711 l 214 772 l 268 743 l 307 813 l 257 842 l 307 869 l 268 940 l 214 910 l 214 972 l 134 972 m 161 945 l 187 945 l 187 865 l 228 887 l 258 903 l 271 880 l 244 865 l 201 842 l 244 818 l 271 803 l 258 779 l 228 796 l 187 819 l 187 739 l 161 739 l 161 819 l 121 796 l 90 779 l 77 803 l 104 818 l 146 842 l 104 865 l 77 880 l 90 903 l 121 887 l 161 865 l 161 945 z "},"+":{"ha":916,"x_min":41,"x_max":876,"o":"m 323 897 l 323 614 l 41 614 l 41 345 l 323 345 l 323 62 l 593 62 l 593 345 l 876 345 l 876 614 l 593 614 l 593 897 l 323 897 m 68 587 l 351 587 l 351 870 l 566 870 l 566 587 l 849 587 l 849 372 l 566 372 l 566 89 l 351 89 l 351 372 l 68 372 l 68 587 z "},",":{"ha":458,"x_min":41,"x_max":418,"o":"m 68 -298 l 68 -83 l 94 -83 q 152 -60 128 -83 q 176 -2 176 -36 l 176 240 l 391 240 l 391 -2 q 304 -212 391 -125 q 94 -298 217 -298 l 68 -298 m 418 267 l 149 267 l 149 -2 q 133 -40 149 -24 q 94 -56 117 -56 l 41 -56 l 41 -326 l 94 -326 q 323 -231 229 -326 q 418 -2 418 -136 l 418 267 z "},"-":{"ha":916,"x_min":41,"x_max":876,"o":"m 41 345 l 876 345 l 876 614 l 41 614 l 41 345 m 68 588 l 849 588 l 849 372 l 68 372 l 68 588 z "},"­":{"ha":916,"x_min":41,"x_max":876,"o":"m 41 345 l 876 345 l 876 614 l 41 614 l 41 345 m 68 588 l 849 588 l 849 372 l 68 372 l 68 588 z "},".":{"ha":351,"x_min":41,"x_max":310,"o":"m 41 0 l 310 0 l 310 269 l 41 269 l 41 0 m 68 243 l 283 243 l 283 27 l 68 27 l 68 243 z "},"/":{"ha":486,"x_min":41,"x_max":445,"o":"m 176 970 l 41 0 l 310 0 l 445 970 l 176 970 m 199 943 l 414 943 l 287 27 l 72 27 l 199 943 z "},":":{"ha":351,"x_min":41,"x_max":310,"o":"m 41 0 l 310 0 l 310 269 l 41 269 l 41 0 m 68 243 l 283 243 l 283 27 l 68 27 l 68 243 m 41 323 l 310 323 l 310 593 l 41 593 l 41 323 m 68 566 l 283 566 l 283 350 l 68 350 l 68 566 z "},";":{"ha":458,"x_min":41,"x_max":418,"o":"m 149 321 l 418 321 l 418 591 l 149 591 l 149 321 m 176 564 l 391 564 l 391 348 l 176 348 l 176 564 m 68 -298 l 68 -83 l 94 -83 q 152 -60 128 -83 q 176 -2 176 -36 l 176 240 l 391 240 l 391 -2 q 304 -212 391 -125 q 94 -298 217 -298 l 68 -298 m 418 267 l 149 267 l 149 -2 q 133 -40 149 -24 q 94 -56 117 -56 l 41 -56 l 41 -326 l 94 -326 q 323 -231 229 -326 q 418 -2 418 -136 l 418 267 z "},";":{"ha":458,"x_min":41,"x_max":418,"o":"m 149 321 l 418 321 l 418 591 l 149 591 l 149 321 m 176 564 l 391 564 l 391 348 l 176 348 l 176 564 m 68 -298 l 68 -83 l 94 -83 q 152 -60 128 -83 q 176 -2 176 -36 l 176 240 l 391 240 l 391 -2 q 304 -212 391 -125 q 94 -298 217 -298 l 68 -298 m 418 267 l 149 267 l 149 -2 q 133 -40 149 -24 q 94 -56 117 -56 l 41 -56 l 41 -326 l 94 -326 q 323 -231 229 -326 q 418 -2 418 -136 l 418 267 z "},"<":{"ha":690,"x_min":41,"x_max":650,"o":"m 459 899 l 41 480 l 459 62 l 650 252 l 422 480 l 650 708 l 459 899 m 79 480 l 459 861 l 612 708 l 403 499 l 384 480 l 403 461 l 612 252 l 459 100 l 79 480 z "},"=":{"ha":916,"x_min":41,"x_max":876,"o":"m 41 507 l 876 507 l 876 776 l 41 776 l 41 507 m 68 749 l 849 749 l 849 533 l 68 533 l 68 749 m 41 183 l 876 183 l 876 452 l 41 452 l 41 183 m 68 426 l 849 426 l 849 210 l 68 210 l 68 426 z "},">":{"ha":690,"x_min":41,"x_max":650,"o":"m 231 901 l 41 711 l 269 483 l 41 255 l 231 64 l 650 483 l 231 901 m 79 255 l 288 464 l 307 483 l 288 502 l 79 711 l 231 863 l 612 483 l 231 102 l 79 255 z "},"?":{"ha":701,"x_min":41,"x_max":661,"o":"m 570 482 q 412 384 508 406 l 391 379 l 391 350 l 176 350 l 176 593 l 351 593 q 398 612 378 593 q 418 660 418 632 q 398 707 418 688 q 351 728 378 728 l 68 728 l 68 943 l 351 943 q 551 860 467 943 q 633 660 633 777 q 570 482 633 559 m 41 970 l 41 701 l 351 701 q 379 688 367 701 q 391 660 391 677 q 379 631 391 644 q 351 620 367 620 l 149 620 l 149 323 l 418 323 l 418 357 q 591 465 523 381 q 661 660 661 550 q 570 879 661 788 q 351 970 479 970 l 41 970 m 176 243 l 391 243 l 391 27 l 176 27 l 176 243 m 149 0 l 418 0 l 418 269 l 149 269 l 149 0 z "},"@":{"ha":1038,"x_min":41,"x_max":997,"o":"m 519 835 q 267 730 371 835 q 162 478 162 626 q 267 226 162 330 q 519 121 371 121 q 729 190 635 121 q 823 146 772 159 q 519 27 694 27 q 200 159 332 27 q 68 478 68 292 q 200 797 68 665 q 519 929 332 929 q 838 797 705 929 q 970 478 970 665 q 898 237 970 342 l 897 237 q 869 239 883 237 q 781 271 827 244 q 727 315 750 291 l 707 334 l 688 315 q 519 243 618 243 q 352 311 421 243 q 283 478 283 380 q 352 645 283 576 q 519 714 421 714 q 686 645 616 714 q 755 478 755 576 q 822 358 755 399 l 852 339 l 862 374 q 876 478 876 422 q 771 730 876 626 q 519 835 667 835 m 781 478 q 705 664 781 587 q 519 741 627 741 q 333 664 410 741 q 256 478 256 587 q 333 292 256 370 q 519 216 410 216 q 707 296 630 216 q 768 249 733 269 q 865 212 818 218 q 897 210 881 210 q 909 210 903 210 l 912 210 l 914 213 q 997 478 997 329 q 857 816 997 676 q 519 956 717 956 q 181 816 321 956 q 41 478 41 676 q 181 140 41 281 q 519 0 321 0 q 870 154 728 0 l 880 164 l 866 165 q 733 220 791 173 l 729 224 l 725 220 q 519 148 635 148 q 286 245 382 148 q 189 478 189 342 q 286 711 189 614 q 519 808 382 808 q 752 711 655 808 q 849 478 849 614 q 836 380 849 426 q 781 478 781 414 m 633 473 q 598 395 631 427 q 519 363 565 363 q 438 397 471 363 q 404 478 404 431 q 438 559 404 526 q 519 593 471 593 q 600 559 566 593 q 633 479 633 526 q 633 473 633 477 m 661 479 q 618 578 660 538 q 519 620 576 620 q 419 578 460 620 q 378 478 378 536 q 419 378 378 420 q 519 337 460 337 q 616 376 576 337 q 660 471 657 414 l 660 474 q 660 475 660 475 l 661 477 l 661 479 z "},"A":{"ha":1139,"x_min":41,"x_max":1098,"o":"m 488 404 l 573 623 l 656 404 l 488 404 m 598 632 l 573 697 l 548 632 l 463 414 l 448 377 l 695 377 l 681 414 l 598 632 m 420 970 l 41 0 l 330 0 l 382 135 l 758 135 l 810 0 l 1098 0 l 729 970 l 420 970 m 438 943 l 711 943 l 1059 27 l 828 27 l 783 144 l 777 161 l 364 161 l 357 144 l 311 27 l 80 27 l 438 943 z "},"B":{"ha":916,"x_min":41,"x_max":876,"o":"m 309 261 l 309 369 l 562 369 q 596 353 582 369 q 611 315 611 338 q 596 277 611 293 q 562 261 582 261 l 309 261 m 638 315 q 616 372 638 349 q 562 396 593 396 l 281 396 l 281 235 l 562 235 q 616 258 593 235 q 638 315 638 281 m 309 709 l 562 709 q 596 692 582 709 q 611 654 611 677 q 596 616 611 632 q 562 601 582 601 l 309 601 l 309 709 m 562 574 q 616 597 593 574 q 638 654 638 621 q 616 712 638 688 q 562 735 593 735 l 281 735 l 281 574 l 562 574 m 68 943 l 566 943 q 766 860 683 943 q 849 660 849 777 q 800 500 849 572 l 789 485 l 800 470 q 849 310 849 397 q 766 110 849 193 q 566 27 683 27 l 68 27 l 68 943 m 876 310 q 821 485 876 406 q 876 660 876 564 q 785 879 876 788 q 566 970 694 970 l 41 970 l 41 0 l 566 0 q 785 91 694 0 q 876 310 876 182 z "},"C":{"ha":909,"x_min":41,"x_max":868,"o":"m 354 313 q 526 242 425 242 q 677 295 611 242 l 829 142 q 526 27 700 27 q 201 161 336 27 q 68 485 68 295 q 201 808 68 675 q 526 943 336 943 q 829 827 700 943 l 677 674 q 526 727 611 727 q 354 656 425 727 q 283 485 283 585 q 354 313 283 384 m 526 700 q 677 637 614 700 l 868 827 q 526 969 726 969 q 182 827 324 969 q 41 485 41 686 q 182 142 41 283 q 526 0 324 0 q 868 142 726 0 l 677 332 q 526 269 614 269 q 373 332 436 269 q 310 485 310 395 q 373 637 310 574 q 526 700 436 700 z "},"D":{"ha":970,"x_min":41,"x_max":930,"o":"m 310 701 l 445 701 q 597 637 534 701 q 661 485 661 574 q 597 332 661 396 q 445 269 534 269 l 310 269 l 310 701 m 687 485 q 616 656 687 585 q 445 728 545 728 l 283 728 l 283 243 l 445 243 q 616 313 545 243 q 687 485 687 385 m 68 943 l 445 943 q 768 808 634 943 q 903 485 903 674 q 768 161 903 296 q 445 27 634 27 l 68 27 l 68 943 m 930 485 q 787 827 930 686 q 445 970 646 970 l 41 970 l 41 0 l 445 0 q 787 142 646 0 q 930 485 930 284 z "},"E":{"ha":916,"x_min":41,"x_max":876,"o":"m 41 970 l 41 0 l 876 0 l 876 269 l 310 269 l 310 377 l 696 377 l 696 593 l 310 593 l 310 701 l 876 701 l 876 970 l 41 970 m 68 943 l 849 943 l 849 728 l 283 728 l 283 566 l 669 566 l 669 404 l 283 404 l 283 243 l 849 243 l 849 27 l 68 27 l 68 943 z "},"F":{"ha":916,"x_min":41,"x_max":876,"o":"m 41 970 l 41 0 l 310 0 l 310 377 l 696 377 l 696 593 l 310 593 l 310 701 l 876 701 l 876 970 l 41 970 m 68 943 l 849 943 l 849 728 l 283 728 l 283 566 l 669 566 l 669 404 l 283 404 l 283 27 l 68 27 l 68 943 z "},"G":{"ha":1051,"x_min":41,"x_max":1010,"o":"m 729 75 q 526 27 633 27 q 202 161 336 27 l 191 172 q 106 299 138 229 q 68 461 73 376 l 68 462 q 68 472 68 467 l 68 473 q 68 485 68 479 q 68 496 68 490 l 68 498 q 68 509 68 503 l 68 509 q 106 671 73 594 q 202 809 141 748 q 340 904 262 869 q 502 942 416 938 l 503 942 q 512 943 507 943 l 513 943 l 514 943 l 526 943 q 830 827 700 943 l 677 674 q 526 727 611 727 q 447 714 485 727 l 446 714 q 445 713 446 713 q 437 711 442 713 l 437 711 l 436 710 q 433 709 434 709 q 429 707 431 708 l 429 707 l 428 707 q 421 704 424 705 q 420 703 420 703 l 419 703 q 284 510 298 644 l 284 509 q 283 499 284 505 l 283 499 q 283 497 283 498 q 283 485 283 491 q 283 473 283 479 q 283 471 283 472 q 284 460 284 465 q 284 460 284 460 q 363 304 294 367 q 526 243 432 243 q 646 275 590 243 q 735 363 703 308 l 759 404 l 633 404 l 633 566 l 983 566 l 983 27 l 768 27 l 768 94 l 729 75 m 1010 0 l 1010 593 l 606 593 l 606 377 l 712 377 q 526 269 650 269 q 381 326 442 269 q 311 463 319 381 q 311 473 311 467 q 311 474 310 477 q 310 485 310 479 q 311 496 310 490 q 311 497 310 493 q 311 507 311 503 l 311 507 q 431 679 323 626 q 433 680 433 680 q 439 682 435 680 q 443 684 443 684 q 448 686 444 684 q 454 688 452 687 q 456 689 452 688 q 526 701 490 701 q 678 637 615 701 l 869 828 q 526 970 726 970 q 513 970 519 970 l 511 970 q 500 969 505 970 q 500 969 500 969 q 182 828 315 960 q 41 510 51 696 l 41 510 q 41 498 41 505 l 41 497 q 41 485 41 491 q 41 473 41 479 l 41 471 q 41 460 41 465 q 182 142 51 274 l 183 142 q 526 0 325 0 q 741 51 640 0 l 741 0 l 1010 0 z "},"H":{"ha":970,"x_min":41,"x_max":930,"o":"m 661 970 l 661 620 l 310 620 l 310 970 l 41 970 l 41 0 l 310 0 l 310 350 l 661 350 l 661 0 l 930 0 l 930 970 l 661 970 m 687 593 l 687 943 l 903 943 l 903 27 l 687 27 l 687 377 l 283 377 l 283 27 l 68 27 l 68 943 l 283 943 l 283 593 l 687 593 z "},"I":{"ha":351,"x_min":41,"x_max":310,"o":"m 41 0 l 310 0 l 310 970 l 41 970 l 41 0 m 68 943 l 283 943 l 283 27 l 68 27 l 68 943 z "},"J":{"ha":566,"x_min":41,"x_max":526,"o":"m 68 27 l 68 243 l 149 243 q 243 282 204 243 q 283 377 283 321 l 283 943 l 498 943 l 498 377 q 396 130 498 233 q 149 27 293 27 l 68 27 m 526 970 l 256 970 l 256 377 q 224 301 256 332 q 149 269 193 269 l 41 269 l 41 0 l 149 0 q 415 111 304 0 q 526 377 526 221 l 526 970 z "},"K":{"ha":1008,"x_min":41,"x_max":967,"o":"m 603 970 l 310 648 l 310 970 l 41 970 l 41 0 l 310 0 l 310 247 l 427 376 l 650 0 l 964 0 l 617 585 l 967 970 l 603 970 m 330 629 l 615 943 l 906 943 l 597 603 l 584 588 l 594 571 l 916 27 l 666 27 l 451 390 l 432 421 l 408 394 l 290 265 l 283 258 l 283 27 l 68 27 l 68 943 l 283 943 l 283 578 l 330 629 z "},"L":{"ha":916,"x_min":41,"x_max":876,"o":"m 41 970 l 41 0 l 876 0 l 876 269 l 310 269 l 310 970 l 41 970 m 68 943 l 283 943 l 283 243 l 849 243 l 849 27 l 68 27 l 68 943 z "},"M":{"ha":1105,"x_min":41,"x_max":1065,"o":"m 803 970 l 553 612 l 302 970 l 41 970 l 41 0 l 310 0 l 310 489 l 553 142 l 795 489 l 795 0 l 1065 0 l 1065 970 l 803 970 m 574 597 l 817 943 l 1038 943 l 1038 27 l 822 27 l 822 574 l 773 504 l 553 189 l 332 504 l 283 574 l 283 27 l 68 27 l 68 943 l 288 943 l 530 597 l 553 565 l 574 597 z "},"N":{"ha":916,"x_min":41,"x_max":876,"o":"m 606 970 l 606 508 l 283 970 l 41 970 l 41 0 l 310 0 l 310 462 l 633 0 l 876 0 l 876 970 l 606 970 m 633 943 l 849 943 l 849 27 l 647 27 l 332 477 l 283 547 l 283 27 l 68 27 l 68 943 l 269 943 l 585 492 l 633 422 l 633 943 z "},"O":{"ha":1051,"x_min":41,"x_max":1010,"o":"m 68 485 q 202 808 68 674 q 526 943 336 943 q 849 808 715 943 q 983 485 983 674 q 849 161 983 296 q 526 27 715 27 q 202 161 336 27 q 68 485 68 296 m 1010 485 q 868 827 1010 686 q 526 970 726 970 q 183 827 325 970 q 41 485 41 686 q 183 142 41 284 q 526 0 325 0 q 868 142 726 0 q 1010 485 1010 284 m 310 485 q 373 637 310 574 q 526 701 437 701 q 678 637 614 701 q 741 485 741 574 q 678 332 741 396 q 526 269 614 269 q 373 332 437 269 q 310 485 310 396 m 768 485 q 697 656 768 585 q 526 728 626 728 q 354 656 425 728 q 283 485 283 585 q 354 313 283 385 q 526 243 425 243 q 697 313 626 243 q 768 485 768 385 z "},"P":{"ha":916,"x_min":41,"x_max":876,"o":"m 283 269 l 283 27 l 68 27 l 68 943 l 512 943 q 750 844 652 943 q 849 606 849 745 q 750 368 849 467 q 512 269 652 269 l 283 269 m 876 606 q 769 863 876 757 q 512 970 663 970 l 41 970 l 41 0 l 310 0 l 310 243 l 512 243 q 769 349 663 243 q 876 606 876 456 m 310 701 l 512 701 q 578 673 551 701 q 606 606 606 645 q 578 540 606 567 q 512 512 551 512 l 310 512 l 310 701 m 633 606 q 598 692 633 656 q 512 728 562 728 l 283 728 l 283 485 l 512 485 q 598 520 562 485 q 633 606 633 556 z "},"Q":{"ha":1078,"x_min":41,"x_max":1038,"o":"m 310 485 q 373 637 310 574 q 526 701 437 701 q 678 637 614 701 q 741 485 741 574 q 678 332 741 396 q 526 269 614 269 q 373 332 437 269 q 310 485 310 396 m 768 485 q 697 656 768 585 q 526 728 626 728 q 354 656 425 728 q 283 485 283 585 q 354 313 283 385 q 526 243 425 243 q 697 313 626 243 q 768 485 768 385 m 68 485 q 202 808 68 674 q 526 943 336 943 q 849 808 715 943 q 983 485 983 674 q 897 217 983 336 l 886 202 l 895 187 l 990 27 l 740 27 l 727 47 l 715 68 l 694 59 q 526 27 613 27 q 202 161 336 27 q 68 485 68 296 m 724 0 l 1038 0 l 918 201 q 1010 485 1010 328 q 868 827 1010 686 q 526 970 726 970 q 183 827 325 970 q 41 485 41 686 q 183 142 41 284 q 526 0 325 0 q 704 34 618 0 l 724 0 z "},"R":{"ha":916,"x_min":41,"x_max":876,"o":"m 310 701 l 512 701 q 578 673 551 701 q 606 606 606 645 q 578 540 606 567 q 512 512 551 512 l 310 512 l 310 701 m 633 606 q 598 692 633 656 q 512 728 562 728 l 283 728 l 283 485 l 512 485 q 598 520 562 485 q 633 606 633 556 m 283 269 l 283 27 l 68 27 l 68 943 l 512 943 q 750 844 652 943 q 849 606 849 745 q 804 439 849 516 q 687 318 761 363 l 664 304 l 677 281 l 829 27 l 578 27 l 442 256 l 434 269 l 283 269 m 563 0 l 876 0 l 701 295 q 827 425 781 344 q 876 606 876 509 q 769 863 876 757 q 512 970 663 970 l 41 970 l 41 0 l 310 0 l 310 243 l 419 243 l 563 0 z "},"S":{"ha":984,"x_min":41,"x_max":943,"o":"m 121 243 l 633 243 q 681 262 661 243 q 701 310 701 282 q 681 357 701 338 q 633 377 661 377 l 351 377 q 151 460 233 377 q 68 660 68 543 q 151 860 68 777 q 351 943 233 943 l 863 943 l 863 728 l 351 728 q 303 707 323 728 q 283 660 283 688 q 303 612 283 632 q 351 593 323 593 l 633 593 q 833 510 750 593 q 916 310 916 427 q 833 110 916 193 q 633 27 750 27 l 121 27 l 121 243 m 943 310 q 852 529 943 438 q 633 620 762 620 l 351 620 q 322 631 334 620 q 310 660 310 644 q 322 688 310 677 q 351 701 334 701 l 889 701 l 889 970 l 351 970 q 132 879 222 970 q 41 660 41 788 q 132 441 41 532 q 351 350 222 350 l 633 350 q 662 338 650 350 q 674 310 674 326 q 662 281 674 293 q 633 269 650 269 l 94 269 l 94 0 l 633 0 q 852 91 762 0 q 943 310 943 182 z "},"T":{"ha":943,"x_min":41,"x_max":903,"o":"m 41 970 l 41 701 l 337 701 l 337 0 l 606 0 l 606 701 l 903 701 l 903 970 l 41 970 m 68 943 l 876 943 l 876 728 l 579 728 l 579 27 l 364 27 l 364 728 l 68 728 l 68 943 z "},"U":{"ha":938,"x_min":41,"x_max":897,"o":"m 68 943 l 283 943 l 283 429 q 338 297 283 351 q 469 243 392 243 q 601 297 546 243 q 655 429 655 351 l 655 943 l 871 943 l 871 429 q 753 144 871 262 q 469 27 635 27 q 185 144 303 27 q 68 429 68 262 l 68 943 m 469 0 q 772 125 646 0 q 897 429 897 251 l 897 970 l 628 970 l 628 429 q 581 316 628 363 q 469 269 535 269 q 357 316 404 269 q 310 429 310 363 l 310 970 l 41 970 l 41 429 q 166 125 41 251 q 469 0 292 0 z "},"V":{"ha":1139,"x_min":41,"x_max":1098,"o":"m 808 970 l 566 348 l 329 970 l 41 970 l 410 0 l 719 0 l 1098 970 l 808 970 m 591 338 l 827 943 l 1059 943 l 701 27 l 428 27 l 80 943 l 311 943 l 541 338 l 565 273 l 591 338 z "},"W":{"ha":1411,"x_min":41,"x_max":1370,"o":"m 1081 970 l 869 418 l 705 699 l 542 418 l 330 970 l 41 970 l 414 0 l 610 0 l 705 163 l 801 0 l 997 0 l 1370 970 l 1081 970 m 894 408 l 1099 943 l 1331 943 l 978 27 l 816 27 l 728 177 l 705 217 l 682 177 l 594 27 l 432 27 l 80 943 l 311 943 l 517 408 l 536 356 l 565 404 l 705 645 l 846 404 l 873 356 l 894 408 z "},"X":{"ha":1060,"x_min":41,"x_max":1019,"o":"m 694 970 l 530 726 l 366 970 l 41 970 l 368 485 l 41 0 l 366 0 l 530 244 l 694 0 l 1019 0 l 692 485 l 1019 970 l 694 970 m 552 711 l 709 943 l 968 943 l 670 500 l 660 485 l 670 470 l 968 27 l 709 27 l 552 259 l 530 292 l 507 259 l 351 27 l 92 27 l 390 470 l 400 485 l 390 500 l 92 943 l 351 943 l 507 711 l 530 677 l 552 711 z "},"Y":{"ha":982,"x_min":41,"x_max":941,"o":"m 630 970 l 491 728 l 351 970 l 41 970 l 356 422 l 356 0 l 625 0 l 625 422 l 941 970 l 630 970 m 514 715 l 646 943 l 895 943 l 602 435 l 599 429 l 599 27 l 383 27 l 383 429 l 380 435 l 87 943 l 336 943 l 467 715 l 491 674 l 514 715 z "},"Z":{"ha":926,"x_min":41,"x_max":886,"o":"m 51 970 l 51 701 l 418 701 l 41 0 l 886 0 l 886 269 l 492 269 l 869 970 l 51 970 m 77 943 l 824 943 l 468 282 l 447 243 l 859 243 l 859 27 l 86 27 l 441 688 l 463 728 l 77 728 l 77 943 z "},"[":{"ha":486,"x_min":41,"x_max":445,"o":"m 41 1291 l 41 -326 l 445 -326 l 445 -56 l 310 -56 l 310 1021 l 445 1021 l 445 1291 l 41 1291 m 68 1264 l 418 1264 l 418 1048 l 283 1048 l 283 -83 l 418 -83 l 418 -298 l 68 -298 l 68 1264 z "},"\\":{"ha":486,"x_min":41,"x_max":445,"o":"m 41 970 l 176 0 l 445 0 l 310 970 l 41 970 m 72 943 l 287 943 l 414 27 l 199 27 l 72 943 z "},"]":{"ha":486,"x_min":41,"x_max":445,"o":"m 41 1289 l 41 1019 l 176 1019 l 176 -58 l 41 -58 l 41 -328 l 445 -328 l 445 1289 l 41 1289 m 68 1262 l 418 1262 l 418 -300 l 68 -300 l 68 -85 l 202 -85 l 202 1046 l 68 1046 l 68 1262 z "},"_":{"ha":916,"x_min":41,"x_max":876,"o":"m 41 0 l 876 0 l 876 269 l 41 269 l 41 0 m 68 243 l 849 243 l 849 27 l 68 27 l 68 243 z "},"`":{"ha":458,"x_min":41,"x_max":418,"o":"m 68 1044 l 68 1260 l 94 1260 q 304 1173 217 1260 q 391 964 391 1086 l 391 722 l 176 722 l 176 964 q 152 1021 176 998 q 94 1044 128 1044 l 68 1044 m 418 694 l 418 964 q 323 1192 418 1097 q 94 1287 229 1287 l 41 1287 l 41 1018 l 94 1018 q 133 1002 117 1018 q 149 964 149 986 l 149 694 l 418 694 z "},"a":{"ha":1139,"x_min":41,"x_max":1098,"o":"m 488 404 l 573 623 l 656 404 l 488 404 m 598 632 l 573 697 l 548 632 l 463 414 l 448 377 l 695 377 l 681 414 l 598 632 m 420 970 l 41 0 l 330 0 l 382 135 l 758 135 l 810 0 l 1098 0 l 729 970 l 420 970 m 438 943 l 711 943 l 1059 27 l 828 27 l 783 144 l 777 161 l 364 161 l 357 144 l 311 27 l 80 27 l 438 943 z "},"b":{"ha":916,"x_min":41,"x_max":876,"o":"m 309 261 l 309 369 l 562 369 q 596 353 582 369 q 611 315 611 338 q 596 277 611 293 q 562 261 582 261 l 309 261 m 638 315 q 616 372 638 349 q 562 396 593 396 l 281 396 l 281 235 l 562 235 q 616 258 593 235 q 638 315 638 281 m 309 709 l 562 709 q 596 692 582 709 q 611 654 611 677 q 596 616 611 632 q 562 601 582 601 l 309 601 l 309 709 m 562 574 q 616 597 593 574 q 638 654 638 621 q 616 712 638 688 q 562 735 593 735 l 281 735 l 281 574 l 562 574 m 68 943 l 566 943 q 766 860 683 943 q 849 660 849 777 q 800 500 849 572 l 789 485 l 800 470 q 849 310 849 397 q 766 110 849 193 q 566 27 683 27 l 68 27 l 68 943 m 876 310 q 821 485 876 406 q 876 660 876 564 q 785 879 876 788 q 566 970 694 970 l 41 970 l 41 0 l 566 0 q 785 91 694 0 q 876 310 876 182 z "},"c":{"ha":909,"x_min":41,"x_max":868,"o":"m 354 313 q 526 242 425 242 q 677 295 611 242 l 829 142 q 526 27 700 27 q 201 161 336 27 q 68 485 68 295 q 201 808 68 675 q 526 943 336 943 q 829 827 700 943 l 677 674 q 526 727 611 727 q 354 656 425 727 q 283 485 283 585 q 354 313 283 384 m 526 700 q 677 637 614 700 l 868 827 q 526 969 726 969 q 182 827 324 969 q 41 485 41 686 q 182 142 41 283 q 526 0 324 0 q 868 142 726 0 l 677 332 q 526 269 614 269 q 373 332 436 269 q 310 485 310 395 q 373 637 310 574 q 526 700 436 700 z "},"d":{"ha":970,"x_min":41,"x_max":930,"o":"m 310 701 l 445 701 q 597 637 534 701 q 661 485 661 574 q 597 332 661 396 q 445 269 534 269 l 310 269 l 310 701 m 687 485 q 616 656 687 585 q 445 728 545 728 l 283 728 l 283 243 l 445 243 q 616 313 545 243 q 687 485 687 385 m 68 943 l 445 943 q 768 808 634 943 q 903 485 903 674 q 768 161 903 296 q 445 27 634 27 l 68 27 l 68 943 m 930 485 q 787 827 930 686 q 445 970 646 970 l 41 970 l 41 0 l 445 0 q 787 142 646 0 q 930 485 930 284 z "},"e":{"ha":916,"x_min":41,"x_max":876,"o":"m 41 970 l 41 0 l 876 0 l 876 269 l 310 269 l 310 377 l 696 377 l 696 593 l 310 593 l 310 701 l 876 701 l 876 970 l 41 970 m 68 943 l 849 943 l 849 728 l 283 728 l 283 566 l 669 566 l 669 404 l 283 404 l 283 243 l 849 243 l 849 27 l 68 27 l 68 943 z "},"f":{"ha":916,"x_min":41,"x_max":876,"o":"m 41 970 l 41 0 l 310 0 l 310 377 l 696 377 l 696 593 l 310 593 l 310 701 l 876 701 l 876 970 l 41 970 m 68 943 l 849 943 l 849 728 l 283 728 l 283 566 l 669 566 l 669 404 l 283 404 l 283 27 l 68 27 l 68 943 z "},"g":{"ha":1051,"x_min":41,"x_max":1010,"o":"m 729 75 q 526 27 633 27 q 202 161 336 27 l 191 172 q 106 299 138 229 q 68 461 73 376 l 68 462 q 68 472 68 467 l 68 473 q 68 485 68 479 q 68 496 68 490 l 68 498 q 68 509 68 503 l 68 509 q 106 671 73 594 q 202 809 141 748 q 340 904 262 869 q 502 942 416 938 l 503 942 q 512 943 507 943 l 513 943 l 514 943 l 526 943 q 830 827 700 943 l 677 674 q 526 727 611 727 q 447 714 485 727 l 446 714 q 445 713 446 713 q 437 711 442 713 l 437 711 l 436 710 q 433 709 434 709 q 429 707 431 708 l 429 707 l 428 707 q 421 704 424 705 q 420 703 420 703 l 419 703 q 284 510 298 644 l 284 509 q 283 499 284 505 l 283 499 q 283 497 283 498 q 283 485 283 491 q 283 473 283 479 q 283 471 283 472 q 284 460 284 465 q 284 460 284 460 q 363 304 294 367 q 526 243 432 243 q 646 275 590 243 q 735 363 703 308 l 759 404 l 633 404 l 633 566 l 983 566 l 983 27 l 768 27 l 768 94 l 729 75 m 1010 0 l 1010 593 l 606 593 l 606 377 l 712 377 q 526 269 650 269 q 381 326 442 269 q 311 463 319 381 q 311 473 311 467 q 311 474 310 477 q 310 485 310 479 q 311 496 310 490 q 311 497 310 493 q 311 507 311 503 l 311 507 q 431 679 323 626 q 433 680 433 680 q 439 682 435 680 q 443 684 443 684 q 448 686 444 684 q 454 688 452 687 q 456 689 452 688 q 526 701 490 701 q 678 637 615 701 l 869 828 q 526 970 726 970 q 513 970 519 970 l 511 970 q 500 969 505 970 q 500 969 500 969 q 182 828 315 960 q 41 510 51 696 l 41 510 q 41 498 41 505 l 41 497 q 41 485 41 491 q 41 473 41 479 l 41 471 q 41 460 41 465 q 182 142 51 274 l 183 142 q 526 0 325 0 q 741 51 640 0 l 741 0 l 1010 0 z "},"h":{"ha":970,"x_min":41,"x_max":930,"o":"m 661 970 l 661 620 l 310 620 l 310 970 l 41 970 l 41 0 l 310 0 l 310 350 l 661 350 l 661 0 l 930 0 l 930 970 l 661 970 m 687 593 l 687 943 l 903 943 l 903 27 l 687 27 l 687 377 l 283 377 l 283 27 l 68 27 l 68 943 l 283 943 l 283 593 l 687 593 z "},"i":{"ha":351,"x_min":41,"x_max":310,"o":"m 41 0 l 310 0 l 310 970 l 41 970 l 41 0 m 68 943 l 283 943 l 283 27 l 68 27 l 68 943 z "},"j":{"ha":566,"x_min":41,"x_max":526,"o":"m 68 27 l 68 243 l 149 243 q 243 282 204 243 q 283 377 283 321 l 283 943 l 498 943 l 498 377 q 396 130 498 233 q 149 27 293 27 l 68 27 m 526 970 l 256 970 l 256 377 q 224 301 256 332 q 149 269 193 269 l 41 269 l 41 0 l 149 0 q 415 111 304 0 q 526 377 526 221 l 526 970 z "},"k":{"ha":1008,"x_min":41,"x_max":967,"o":"m 603 970 l 310 648 l 310 970 l 41 970 l 41 0 l 310 0 l 310 247 l 427 376 l 650 0 l 964 0 l 617 585 l 967 970 l 603 970 m 330 629 l 615 943 l 906 943 l 597 603 l 584 588 l 594 571 l 916 27 l 666 27 l 451 390 l 432 421 l 408 394 l 290 265 l 283 258 l 283 27 l 68 27 l 68 943 l 283 943 l 283 578 l 330 629 z "},"l":{"ha":916,"x_min":41,"x_max":876,"o":"m 41 970 l 41 0 l 876 0 l 876 269 l 310 269 l 310 970 l 41 970 m 68 943 l 283 943 l 283 243 l 849 243 l 849 27 l 68 27 l 68 943 z "},"m":{"ha":1105,"x_min":41,"x_max":1065,"o":"m 803 970 l 553 612 l 302 970 l 41 970 l 41 0 l 310 0 l 310 489 l 553 142 l 795 489 l 795 0 l 1065 0 l 1065 970 l 803 970 m 574 597 l 817 943 l 1038 943 l 1038 27 l 822 27 l 822 574 l 773 504 l 553 189 l 332 504 l 283 574 l 283 27 l 68 27 l 68 943 l 288 943 l 530 597 l 553 565 l 574 597 z "},"n":{"ha":916,"x_min":41,"x_max":876,"o":"m 606 970 l 606 508 l 283 970 l 41 970 l 41 0 l 310 0 l 310 462 l 633 0 l 876 0 l 876 970 l 606 970 m 633 943 l 849 943 l 849 27 l 647 27 l 332 477 l 283 547 l 283 27 l 68 27 l 68 943 l 269 943 l 585 492 l 633 422 l 633 943 z "},"o":{"ha":1051,"x_min":41,"x_max":1010,"o":"m 68 485 q 202 808 68 674 q 526 943 336 943 q 849 808 715 943 q 983 485 983 674 q 849 161 983 296 q 526 27 715 27 q 202 161 336 27 q 68 485 68 296 m 1010 485 q 868 827 1010 686 q 526 970 726 970 q 183 827 325 970 q 41 485 41 686 q 183 142 41 284 q 526 0 325 0 q 868 142 726 0 q 1010 485 1010 284 m 310 485 q 373 637 310 574 q 526 701 437 701 q 678 637 614 701 q 741 485 741 574 q 678 332 741 396 q 526 269 614 269 q 373 332 437 269 q 310 485 310 396 m 768 485 q 697 656 768 585 q 526 728 626 728 q 354 656 425 728 q 283 485 283 585 q 354 313 283 385 q 526 243 425 243 q 697 313 626 243 q 768 485 768 385 z "},"p":{"ha":916,"x_min":41,"x_max":876,"o":"m 283 269 l 283 27 l 68 27 l 68 943 l 512 943 q 750 844 652 943 q 849 606 849 745 q 750 368 849 467 q 512 269 652 269 l 283 269 m 876 606 q 769 863 876 757 q 512 970 663 970 l 41 970 l 41 0 l 310 0 l 310 243 l 512 243 q 769 349 663 243 q 876 606 876 456 m 310 701 l 512 701 q 578 673 551 701 q 606 606 606 645 q 578 540 606 567 q 512 512 551 512 l 310 512 l 310 701 m 633 606 q 598 692 633 656 q 512 728 562 728 l 283 728 l 283 485 l 512 485 q 598 520 562 485 q 633 606 633 556 z "},"q":{"ha":1078,"x_min":41,"x_max":1038,"o":"m 310 485 q 373 637 310 574 q 526 701 437 701 q 678 637 614 701 q 741 485 741 574 q 678 332 741 396 q 526 269 614 269 q 373 332 437 269 q 310 485 310 396 m 768 485 q 697 656 768 585 q 526 728 626 728 q 354 656 425 728 q 283 485 283 585 q 354 313 283 385 q 526 243 425 243 q 697 313 626 243 q 768 485 768 385 m 68 485 q 202 808 68 674 q 526 943 336 943 q 849 808 715 943 q 983 485 983 674 q 897 217 983 336 l 886 202 l 895 187 l 990 27 l 740 27 l 727 47 l 715 68 l 694 59 q 526 27 613 27 q 202 161 336 27 q 68 485 68 296 m 724 0 l 1038 0 l 918 201 q 1010 485 1010 328 q 868 827 1010 686 q 526 970 726 970 q 183 827 325 970 q 41 485 41 686 q 183 142 41 284 q 526 0 325 0 q 704 34 618 0 l 724 0 z "},"r":{"ha":916,"x_min":41,"x_max":876,"o":"m 310 701 l 512 701 q 578 673 551 701 q 606 606 606 645 q 578 540 606 567 q 512 512 551 512 l 310 512 l 310 701 m 633 606 q 598 692 633 656 q 512 728 562 728 l 283 728 l 283 485 l 512 485 q 598 520 562 485 q 633 606 633 556 m 283 269 l 283 27 l 68 27 l 68 943 l 512 943 q 750 844 652 943 q 849 606 849 745 q 804 439 849 516 q 687 318 761 363 l 664 304 l 677 281 l 829 27 l 578 27 l 442 256 l 434 269 l 283 269 m 563 0 l 876 0 l 701 295 q 827 425 781 344 q 876 606 876 509 q 769 863 876 757 q 512 970 663 970 l 41 970 l 41 0 l 310 0 l 310 243 l 419 243 l 563 0 z "},"s":{"ha":984,"x_min":41,"x_max":943,"o":"m 121 243 l 633 243 q 681 262 661 243 q 701 310 701 282 q 681 357 701 338 q 633 377 661 377 l 351 377 q 151 460 233 377 q 68 660 68 543 q 151 860 68 777 q 351 943 233 943 l 863 943 l 863 728 l 351 728 q 303 707 323 728 q 283 660 283 688 q 303 612 283 632 q 351 593 323 593 l 633 593 q 833 510 750 593 q 916 310 916 427 q 833 110 916 193 q 633 27 750 27 l 121 27 l 121 243 m 943 310 q 852 529 943 438 q 633 620 762 620 l 351 620 q 322 631 334 620 q 310 660 310 644 q 322 688 310 677 q 351 701 334 701 l 889 701 l 889 970 l 351 970 q 132 879 222 970 q 41 660 41 788 q 132 441 41 532 q 351 350 222 350 l 633 350 q 662 338 650 350 q 674 310 674 326 q 662 281 674 293 q 633 269 650 269 l 94 269 l 94 0 l 633 0 q 852 91 762 0 q 943 310 943 182 z "},"t":{"ha":943,"x_min":41,"x_max":903,"o":"m 41 970 l 41 701 l 337 701 l 337 0 l 606 0 l 606 701 l 903 701 l 903 970 l 41 970 m 68 943 l 876 943 l 876 728 l 579 728 l 579 27 l 364 27 l 364 728 l 68 728 l 68 943 z "},"u":{"ha":938,"x_min":41,"x_max":897,"o":"m 68 943 l 283 943 l 283 429 q 338 297 283 351 q 469 243 392 243 q 601 297 546 243 q 655 429 655 351 l 655 943 l 871 943 l 871 429 q 753 144 871 262 q 469 27 635 27 q 185 144 303 27 q 68 429 68 262 l 68 943 m 469 0 q 772 125 646 0 q 897 429 897 251 l 897 970 l 628 970 l 628 429 q 581 316 628 363 q 469 269 535 269 q 357 316 404 269 q 310 429 310 363 l 310 970 l 41 970 l 41 429 q 166 125 41 251 q 469 0 292 0 z "},"v":{"ha":1139,"x_min":41,"x_max":1098,"o":"m 808 970 l 566 348 l 329 970 l 41 970 l 410 0 l 719 0 l 1098 970 l 808 970 m 591 338 l 827 943 l 1059 943 l 701 27 l 428 27 l 80 943 l 311 943 l 541 338 l 565 273 l 591 338 z "},"w":{"ha":1411,"x_min":41,"x_max":1370,"o":"m 1081 970 l 869 418 l 705 699 l 542 418 l 330 970 l 41 970 l 414 0 l 610 0 l 705 163 l 801 0 l 997 0 l 1370 970 l 1081 970 m 894 408 l 1099 943 l 1331 943 l 978 27 l 816 27 l 728 177 l 705 217 l 682 177 l 594 27 l 432 27 l 80 943 l 311 943 l 517 408 l 536 356 l 565 404 l 705 645 l 846 404 l 873 356 l 894 408 z "},"x":{"ha":1060,"x_min":41,"x_max":1019,"o":"m 694 970 l 530 726 l 366 970 l 41 970 l 368 485 l 41 0 l 366 0 l 530 244 l 694 0 l 1019 0 l 692 485 l 1019 970 l 694 970 m 552 711 l 709 943 l 968 943 l 670 500 l 660 485 l 670 470 l 968 27 l 709 27 l 552 259 l 530 292 l 507 259 l 351 27 l 92 27 l 390 470 l 400 485 l 390 500 l 92 943 l 351 943 l 507 711 l 530 677 l 552 711 z "},"y":{"ha":982,"x_min":41,"x_max":941,"o":"m 630 970 l 491 728 l 351 970 l 41 970 l 356 422 l 356 0 l 625 0 l 625 422 l 941 970 l 630 970 m 514 715 l 646 943 l 895 943 l 602 435 l 599 429 l 599 27 l 383 27 l 383 429 l 380 435 l 87 943 l 336 943 l 467 715 l 491 674 l 514 715 z "},"z":{"ha":926,"x_min":41,"x_max":886,"o":"m 51 970 l 51 701 l 418 701 l 41 0 l 886 0 l 886 269 l 492 269 l 869 970 l 51 970 m 77 943 l 824 943 l 468 282 l 447 243 l 859 243 l 859 27 l 86 27 l 441 688 l 463 728 l 77 728 l 77 943 z "},"´":{"ha":340,"x_min":41,"x_max":299,"o":"m 199 1106 l 41 931 l 140 841 l 299 1016 l 199 1106 m 79 933 l 201 1068 l 260 1014 l 139 879 l 79 933 z "},"À":{"ha":1139,"x_min":41,"x_max":1098,"o":"m 420 970 l 41 0 l 330 0 l 382 135 l 758 135 l 810 0 l 1098 0 l 729 970 l 420 970 m 438 943 l 711 943 l 1059 27 l 828 27 l 783 144 l 777 161 l 364 161 l 357 144 l 311 27 l 80 27 l 438 943 m 488 404 l 573 623 l 656 404 l 488 404 m 598 632 l 573 697 l 548 632 l 463 414 l 448 377 l 695 377 l 681 414 l 598 632 m 540 1284 l 440 1194 l 598 1019 l 699 1109 l 540 1284 m 478 1192 l 538 1246 l 661 1112 l 600 1057 l 478 1192 z "},"Á":{"ha":1139,"x_min":41,"x_max":1098,"o":"m 483 404 l 566 623 l 650 404 l 483 404 m 591 632 l 565 697 l 541 632 l 457 414 l 444 377 l 690 377 l 675 414 l 591 632 m 410 970 l 41 0 l 329 0 l 380 135 l 756 135 l 808 0 l 1098 0 l 719 970 l 410 970 m 428 943 l 701 943 l 1059 27 l 827 27 l 781 144 l 774 161 l 361 161 l 355 144 l 311 27 l 80 27 l 428 943 m 598 1284 l 440 1109 l 540 1019 l 699 1194 l 598 1284 m 478 1112 l 600 1246 l 661 1192 l 538 1057 l 478 1112 z "},"Â":{"ha":1139,"x_min":41,"x_max":1098,"o":"m 420 970 l 41 0 l 330 0 l 382 135 l 758 135 l 810 0 l 1098 0 l 729 970 l 420 970 m 438 943 l 711 943 l 1059 27 l 828 27 l 783 144 l 777 161 l 364 161 l 357 144 l 311 27 l 80 27 l 438 943 m 573 623 l 656 404 l 488 404 l 573 623 m 695 377 l 681 414 l 598 632 l 573 697 l 548 632 l 463 414 l 448 377 l 695 377 m 553 1280 l 397 1125 l 492 1030 l 553 1090 l 612 1030 l 708 1125 l 553 1280 m 435 1125 l 553 1242 l 670 1125 l 612 1068 l 572 1109 l 553 1128 l 534 1109 l 492 1068 l 435 1125 z "},"Ã":{"ha":1139,"x_min":41,"x_max":1098,"o":"m 488 404 l 573 623 l 656 404 l 488 404 m 598 632 l 573 697 l 548 632 l 463 414 l 448 377 l 695 377 l 681 414 l 598 632 m 420 970 l 41 0 l 330 0 l 382 135 l 758 135 l 810 0 l 1098 0 l 729 970 l 420 970 m 438 943 l 711 943 l 1059 27 l 828 27 l 783 144 l 777 161 l 364 161 l 357 144 l 311 27 l 80 27 l 438 943 m 772 1117 q 683 1057 734 1069 q 647 1052 665 1052 q 547 1084 597 1052 q 492 1103 517 1103 q 477 1101 484 1103 q 440 1080 457 1097 l 367 1119 q 455 1179 404 1166 q 492 1184 473 1184 q 591 1152 541 1184 q 647 1133 621 1133 q 662 1135 654 1133 q 699 1156 681 1139 l 772 1117 m 656 1160 q 647 1160 652 1160 q 606 1175 629 1160 q 492 1211 549 1211 q 448 1206 469 1211 q 328 1109 369 1185 l 447 1046 q 446 1045 446 1046 q 483 1076 460 1070 q 492 1076 487 1076 q 533 1061 509 1076 q 647 1025 590 1025 q 690 1030 669 1025 q 810 1126 770 1051 l 692 1190 q 692 1191 692 1191 q 656 1160 677 1166 z "},"Ä":{"ha":1139,"x_min":41,"x_max":1098,"o":"m 420 970 l 41 0 l 330 0 l 382 135 l 758 135 l 810 0 l 1098 0 l 729 970 l 420 970 m 438 943 l 711 943 l 1059 27 l 828 27 l 783 144 l 777 161 l 364 161 l 357 144 l 311 27 l 80 27 l 438 943 m 573 623 l 656 404 l 488 404 l 573 623 m 695 377 l 681 414 l 598 632 l 573 697 l 548 632 l 463 414 l 448 377 l 695 377 m 408 1050 l 543 1050 l 543 1185 l 408 1185 l 408 1050 m 435 1158 l 515 1158 l 515 1078 l 435 1078 l 435 1158 m 596 1050 l 731 1050 l 731 1185 l 596 1185 l 596 1050 m 623 1158 l 704 1158 l 704 1078 l 623 1078 l 623 1158 z "},"Å":{"ha":1139,"x_min":41,"x_max":1098,"o":"m 596 1097 q 588 1078 596 1085 q 569 1069 581 1069 q 550 1078 558 1069 q 543 1097 543 1085 q 550 1116 543 1107 q 569 1124 558 1124 q 588 1116 581 1124 q 596 1097 596 1107 m 515 1097 q 531 1059 515 1074 q 569 1042 547 1042 q 608 1059 591 1042 q 623 1097 623 1074 q 608 1135 623 1119 q 569 1150 591 1150 q 531 1135 547 1150 q 515 1097 515 1119 m 488 404 l 573 623 l 656 404 l 488 404 m 598 632 l 573 697 l 548 632 l 463 414 l 448 377 l 695 377 l 681 414 l 598 632 m 783 144 l 777 161 l 364 161 l 357 144 l 311 27 l 80 27 l 438 943 l 711 943 l 1059 27 l 828 27 l 783 144 m 729 970 l 420 970 l 41 0 l 330 0 l 382 135 l 758 135 l 810 0 l 1098 0 l 729 970 z "},"Æ":{"ha":1617,"x_min":41,"x_max":1576,"o":"m 420 970 l 41 0 l 330 0 l 382 135 l 758 135 l 810 0 l 1576 0 l 1576 269 l 1010 269 l 1010 377 l 1396 377 l 1396 593 l 1010 593 l 1010 701 l 1576 701 l 1576 970 l 420 970 m 438 943 l 1550 943 l 1550 728 l 983 728 l 983 566 l 1370 566 l 1370 404 l 983 404 l 983 243 l 1550 243 l 1550 27 l 828 27 l 783 144 l 777 161 l 364 161 l 357 144 l 311 27 l 80 27 l 438 943 m 488 404 l 573 623 l 656 404 l 488 404 m 598 632 l 573 697 l 548 632 l 463 414 l 448 377 l 695 377 l 681 414 l 598 632 z "},"Ç":{"ha":909,"x_min":41,"x_max":869,"o":"m 283 482 q 354 311 283 382 q 526 240 425 240 q 677 293 611 240 l 830 140 q 644 40 749 68 l 624 35 l 624 -83 l 408 -83 l 408 39 l 389 45 q 202 158 281 79 q 68 482 68 292 q 202 806 68 672 q 526 940 336 940 q 830 825 701 940 l 677 671 q 526 724 611 724 q 354 654 425 724 q 283 482 283 583 m 526 698 q 678 635 615 698 l 869 825 q 526 967 727 967 q 182 825 325 967 q 41 482 41 683 q 182 139 41 281 q 381 19 267 55 l 381 -111 l 651 -111 l 651 14 q 869 139 777 47 l 678 330 q 526 267 615 267 q 373 330 436 267 q 310 482 310 393 q 373 635 310 572 q 526 698 436 698 z "},"È":{"ha":916,"x_min":41,"x_max":876,"o":"m 41 970 l 41 0 l 876 0 l 876 269 l 310 269 l 310 377 l 696 377 l 696 593 l 310 593 l 310 701 l 876 701 l 876 970 l 41 970 m 68 943 l 849 943 l 849 728 l 283 728 l 283 566 l 669 566 l 669 404 l 283 404 l 283 243 l 849 243 l 849 27 l 68 27 l 68 943 m 429 1284 l 329 1194 l 488 1019 l 587 1109 l 429 1284 m 368 1192 l 427 1246 l 549 1112 l 489 1057 l 368 1192 z "},"É":{"ha":916,"x_min":41,"x_max":876,"o":"m 41 970 l 41 0 l 876 0 l 876 269 l 310 269 l 310 377 l 696 377 l 696 593 l 310 593 l 310 701 l 876 701 l 876 970 l 41 970 m 68 943 l 849 943 l 849 728 l 283 728 l 283 566 l 669 566 l 669 404 l 283 404 l 283 243 l 849 243 l 849 27 l 68 27 l 68 943 m 488 1284 l 329 1109 l 429 1019 l 587 1194 l 488 1284 m 368 1112 l 489 1246 l 549 1192 l 427 1057 l 368 1112 z "},"Ê":{"ha":916,"x_min":41,"x_max":876,"o":"m 41 970 l 41 0 l 876 0 l 876 269 l 310 269 l 310 377 l 696 377 l 696 593 l 310 593 l 310 701 l 876 701 l 876 970 l 41 970 m 68 943 l 849 943 l 849 728 l 283 728 l 283 566 l 669 566 l 669 404 l 283 404 l 283 243 l 849 243 l 849 27 l 68 27 l 68 943 m 458 1280 l 303 1125 l 398 1030 l 458 1090 l 518 1030 l 614 1125 l 458 1280 m 341 1125 l 458 1242 l 576 1125 l 518 1068 l 477 1109 l 458 1128 l 439 1109 l 398 1068 l 341 1125 z "},"Ë":{"ha":916,"x_min":41,"x_max":876,"o":"m 41 970 l 41 0 l 876 0 l 876 269 l 310 269 l 310 377 l 696 377 l 696 593 l 310 593 l 310 701 l 876 701 l 876 970 l 41 970 m 68 943 l 849 943 l 849 728 l 283 728 l 283 566 l 669 566 l 669 404 l 283 404 l 283 243 l 849 243 l 849 27 l 68 27 l 68 943 m 296 1050 l 431 1050 l 431 1185 l 296 1185 l 296 1050 m 323 1158 l 404 1158 l 404 1078 l 323 1078 l 323 1158 m 485 1050 l 620 1050 l 620 1185 l 485 1185 l 485 1050 m 512 1158 l 593 1158 l 593 1078 l 512 1078 l 512 1158 z "},"Ì":{"ha":351,"x_min":41,"x_max":310,"o":"m 41 0 l 310 0 l 310 970 l 41 970 l 41 0 m 68 943 l 283 943 l 283 27 l 68 27 l 68 943 m 146 1284 l 46 1194 l 204 1019 l 304 1109 l 146 1284 m 84 1192 l 144 1246 l 267 1112 l 206 1057 l 84 1192 z "},"Í":{"ha":351,"x_min":41,"x_max":310,"o":"m 41 0 l 310 0 l 310 970 l 41 970 l 41 0 m 68 943 l 283 943 l 283 27 l 68 27 l 68 943 m 204 1284 l 46 1109 l 146 1019 l 304 1194 l 204 1284 m 84 1112 l 206 1246 l 267 1192 l 144 1057 l 84 1112 z "},"Î":{"ha":392,"x_min":41,"x_max":351,"o":"m 62 0 l 331 0 l 331 970 l 62 970 l 62 0 m 88 943 l 304 943 l 304 27 l 88 27 l 88 943 m 196 1280 l 41 1125 l 136 1030 l 196 1090 l 256 1030 l 351 1125 l 196 1280 m 79 1125 l 196 1242 l 313 1125 l 256 1068 l 215 1109 l 196 1128 l 177 1109 l 136 1068 l 79 1125 z "},"Ï":{"ha":405,"x_min":41,"x_max":364,"o":"m 68 0 l 337 0 l 337 970 l 68 970 l 68 0 m 94 943 l 310 943 l 310 27 l 94 27 l 94 943 m 41 1078 l 176 1078 l 176 1213 l 41 1213 l 41 1078 m 68 1185 l 149 1185 l 149 1105 l 68 1105 l 68 1185 m 229 1078 l 364 1078 l 364 1213 l 229 1213 l 229 1078 m 256 1185 l 337 1185 l 337 1105 l 256 1105 l 256 1185 z "},"Ð":{"ha":1024,"x_min":41,"x_max":983,"o":"m 121 27 l 121 404 l 68 404 l 68 566 l 121 566 l 121 943 l 498 943 q 823 808 688 943 q 957 485 957 674 q 823 161 957 296 q 498 27 688 27 l 121 27 m 983 485 q 842 827 983 686 q 498 970 699 970 l 94 970 l 94 593 l 41 593 l 41 377 l 94 377 l 94 0 l 498 0 q 842 142 699 0 q 983 485 983 284 m 364 269 l 364 377 l 472 377 l 472 593 l 364 593 l 364 701 l 498 701 q 651 637 588 701 q 714 485 714 574 q 651 332 714 396 q 498 269 588 269 l 364 269 m 337 728 l 337 566 l 445 566 l 445 404 l 337 404 l 337 243 l 498 243 q 670 313 599 243 q 741 485 741 385 q 670 656 741 585 q 498 728 599 728 l 337 728 z "},"Ñ":{"ha":916,"x_min":41,"x_max":876,"o":"m 606 970 l 606 508 l 283 970 l 41 970 l 41 0 l 310 0 l 310 462 l 633 0 l 876 0 l 876 970 l 606 970 m 633 943 l 849 943 l 849 27 l 647 27 l 332 477 l 283 547 l 283 27 l 68 27 l 68 943 l 269 943 l 585 492 l 633 422 l 633 943 m 256 1119 q 345 1179 294 1166 q 380 1184 362 1184 q 480 1152 430 1184 q 536 1133 511 1133 q 551 1135 544 1133 q 587 1156 570 1139 l 661 1117 q 572 1057 623 1069 q 536 1052 555 1052 q 437 1084 487 1052 q 380 1103 406 1103 q 366 1101 373 1103 q 329 1080 347 1097 l 256 1119 m 372 1076 q 380 1076 376 1076 q 422 1061 398 1076 q 536 1025 479 1025 q 579 1030 558 1025 q 699 1126 659 1051 l 581 1190 q 581 1191 581 1191 q 545 1160 566 1166 q 536 1160 541 1160 q 494 1175 518 1160 q 380 1211 437 1211 q 338 1206 359 1211 q 217 1109 258 1185 l 336 1046 q 335 1045 336 1046 q 372 1076 350 1070 z "},"Ò":{"ha":1051,"x_min":41,"x_max":1010,"o":"m 526 27 q 202 161 336 27 q 68 485 68 296 q 202 808 68 674 q 526 943 336 943 q 849 808 715 943 q 983 485 983 674 q 849 161 983 296 q 526 27 715 27 m 1010 485 q 868 827 1010 686 q 526 970 726 970 q 183 827 325 970 q 41 485 41 686 q 183 142 41 284 q 526 0 325 0 q 868 142 726 0 q 1010 485 1010 284 m 526 269 q 373 332 437 269 q 310 485 310 396 q 373 637 310 574 q 526 701 437 701 q 678 637 614 701 q 741 485 741 574 q 678 332 741 396 q 526 269 614 269 m 526 728 q 354 656 425 728 q 283 485 283 585 q 354 313 283 385 q 526 243 425 243 q 697 313 626 243 q 768 485 768 385 q 697 656 768 585 q 526 728 626 728 m 557 1057 l 435 1192 l 494 1246 l 616 1112 l 557 1057 m 397 1194 l 555 1019 l 654 1109 l 496 1284 l 397 1194 z "},"Ó":{"ha":1051,"x_min":41,"x_max":1010,"o":"m 526 943 q 849 808 715 943 q 983 485 983 674 q 849 161 983 296 q 526 27 715 27 q 202 161 336 27 q 68 485 68 296 q 202 808 68 674 q 526 943 336 943 m 41 485 q 183 142 41 284 q 526 0 325 0 q 868 142 726 0 q 1010 485 1010 284 q 868 827 1010 686 q 526 970 726 970 q 183 827 325 970 q 41 485 41 686 m 526 701 q 678 637 614 701 q 741 485 741 574 q 678 332 741 396 q 526 269 614 269 q 373 332 437 269 q 310 485 310 396 q 373 637 310 574 q 526 701 437 701 m 526 243 q 697 313 626 243 q 768 485 768 385 q 697 656 768 585 q 526 728 626 728 q 354 656 425 728 q 283 485 283 585 q 354 313 283 385 q 526 243 425 243 m 494 1057 l 435 1112 l 557 1246 l 616 1192 l 494 1057 m 555 1284 l 397 1109 l 496 1019 l 654 1194 l 555 1284 z "},"Ô":{"ha":1051,"x_min":41,"x_max":1010,"o":"m 526 701 q 678 637 614 701 q 741 485 741 574 q 678 332 741 396 q 526 269 614 269 q 373 332 437 269 q 310 485 310 396 q 373 637 310 574 q 526 701 437 701 m 526 243 q 697 313 626 243 q 768 485 768 385 q 697 656 768 585 q 526 728 626 728 q 354 656 425 728 q 283 485 283 585 q 354 313 283 385 q 526 243 425 243 m 526 943 q 849 808 715 943 q 983 485 983 674 q 849 161 983 296 q 526 27 715 27 q 202 161 336 27 q 68 485 68 296 q 202 808 68 674 q 526 943 336 943 m 526 0 q 868 142 726 0 q 1010 485 1010 284 q 868 827 1010 686 q 526 970 726 970 q 183 827 325 970 q 41 485 41 686 q 183 142 41 284 q 526 0 325 0 m 586 1068 l 545 1109 l 526 1128 l 507 1109 l 465 1068 l 408 1125 l 526 1242 l 643 1125 l 586 1068 m 370 1125 l 465 1030 l 526 1090 l 586 1030 l 681 1125 l 526 1280 l 370 1125 z "},"Õ":{"ha":1051,"x_min":41,"x_max":1010,"o":"m 526 27 q 202 161 336 27 q 68 485 68 296 q 202 808 68 674 q 526 943 336 943 q 849 808 715 943 q 983 485 983 674 q 849 161 983 296 q 526 27 715 27 m 1010 485 q 868 827 1010 686 q 526 970 726 970 q 183 827 325 970 q 41 485 41 686 q 183 142 41 284 q 526 0 325 0 q 868 142 726 0 q 1010 485 1010 284 m 526 269 q 373 332 437 269 q 310 485 310 396 q 373 637 310 574 q 526 701 437 701 q 678 637 614 701 q 741 485 741 574 q 678 332 741 396 q 526 269 614 269 m 526 728 q 354 656 425 728 q 283 485 283 585 q 354 313 283 385 q 526 243 425 243 q 697 313 626 243 q 768 485 768 385 q 697 656 768 585 q 526 728 626 728 m 323 1119 q 412 1179 361 1166 q 448 1184 429 1184 q 547 1152 497 1184 q 604 1133 578 1133 q 618 1135 611 1133 q 655 1156 637 1139 l 728 1117 q 640 1057 690 1069 q 604 1052 622 1052 q 504 1084 554 1052 q 448 1103 473 1103 q 433 1101 440 1103 q 396 1080 414 1097 l 323 1119 m 439 1076 q 448 1076 444 1076 q 490 1061 466 1076 q 604 1025 546 1025 q 646 1030 625 1025 q 767 1126 726 1051 l 648 1190 q 648 1191 648 1191 q 612 1160 634 1166 q 604 1160 608 1160 q 562 1175 586 1160 q 448 1211 505 1211 q 405 1206 426 1211 q 284 1109 325 1185 l 403 1046 q 403 1045 403 1046 q 439 1076 417 1070 z "},"Ö":{"ha":1051,"x_min":41,"x_max":1010,"o":"m 526 701 q 678 637 614 701 q 741 485 741 574 q 678 332 741 396 q 526 269 614 269 q 373 332 437 269 q 310 485 310 396 q 373 637 310 574 q 526 701 437 701 m 526 243 q 697 313 626 243 q 768 485 768 385 q 697 656 768 585 q 526 728 626 728 q 354 656 425 728 q 283 485 283 585 q 354 313 283 385 q 526 243 425 243 m 526 943 q 849 808 715 943 q 983 485 983 674 q 849 161 983 296 q 526 27 715 27 q 202 161 336 27 q 68 485 68 296 q 202 808 68 674 q 526 943 336 943 m 526 0 q 868 142 726 0 q 1010 485 1010 284 q 868 827 1010 686 q 526 970 726 970 q 183 827 325 970 q 41 485 41 686 q 183 142 41 284 q 526 0 325 0 m 391 1158 l 472 1158 l 472 1078 l 391 1078 l 391 1158 m 498 1185 l 364 1185 l 364 1050 l 498 1050 l 498 1185 m 661 1078 l 579 1078 l 579 1158 l 661 1158 l 661 1078 m 687 1185 l 553 1185 l 553 1050 l 687 1050 l 687 1185 z "},"Ø":{"ha":1051,"x_min":41,"x_max":1010,"o":"m 526 269 q 502 271 514 269 l 740 509 q 741 485 741 496 q 678 332 741 396 q 526 269 614 269 m 760 568 l 721 528 l 483 290 l 443 250 l 499 244 q 526 243 513 243 q 697 313 626 243 q 768 485 768 385 q 766 511 768 498 l 760 568 m 526 27 q 304 84 408 27 l 287 94 l 273 79 l 240 47 l 88 199 l 120 232 l 134 246 l 125 264 q 68 485 68 367 q 202 808 68 674 q 526 943 336 943 q 747 886 644 943 l 764 876 l 779 890 l 811 922 l 963 770 l 931 738 l 917 724 l 926 706 q 983 485 983 603 q 849 161 983 296 q 526 27 715 27 m 1010 485 q 950 719 1010 610 l 1002 770 l 811 961 l 760 909 q 526 970 650 970 q 183 827 325 970 q 41 485 41 686 q 101 251 41 360 l 50 199 l 240 9 l 292 60 q 526 0 401 0 q 868 142 726 0 q 1010 485 1010 284 m 311 461 q 310 485 310 473 q 373 637 310 574 q 526 701 437 701 q 549 699 537 701 l 311 461 m 608 720 l 552 726 q 526 728 538 728 q 354 656 425 728 q 283 485 283 585 q 285 458 283 472 l 291 403 l 330 442 l 568 680 l 608 720 z "},"Ù":{"ha":938,"x_min":41,"x_max":897,"o":"m 469 27 q 185 144 303 27 q 68 429 68 262 l 68 943 l 283 943 l 283 429 q 338 297 283 351 q 469 243 392 243 q 601 297 546 243 q 655 429 655 351 l 655 943 l 871 943 l 871 429 q 753 144 871 262 q 469 27 635 27 m 897 970 l 628 970 l 628 429 q 581 316 628 363 q 469 269 535 269 q 357 316 404 269 q 310 429 310 363 l 310 970 l 41 970 l 41 429 q 166 125 41 251 q 469 0 292 0 q 772 125 646 0 q 897 429 897 251 l 897 970 m 500 1057 l 378 1192 l 438 1246 l 560 1112 l 500 1057 m 340 1194 l 498 1019 l 598 1109 l 440 1284 l 340 1194 z "},"Ú":{"ha":938,"x_min":41,"x_max":897,"o":"m 469 27 q 185 144 303 27 q 68 429 68 262 l 68 943 l 283 943 l 283 429 q 338 297 283 351 q 469 243 392 243 q 601 297 546 243 q 655 429 655 351 l 655 943 l 871 943 l 871 429 q 753 144 871 262 q 469 27 635 27 m 897 970 l 628 970 l 628 429 q 581 316 628 363 q 469 269 535 269 q 357 316 404 269 q 310 429 310 363 l 310 970 l 41 970 l 41 429 q 166 125 41 251 q 469 0 292 0 q 772 125 646 0 q 897 429 897 251 l 897 970 m 560 1192 l 438 1057 l 378 1112 l 500 1246 l 560 1192 m 340 1109 l 440 1019 l 598 1194 l 498 1284 l 340 1109 z "},"Û":{"ha":938,"x_min":41,"x_max":897,"o":"m 655 943 l 871 943 l 871 429 q 753 144 871 262 q 469 27 635 27 q 185 144 303 27 q 68 429 68 262 l 68 943 l 283 943 l 283 429 q 338 297 283 351 q 469 243 392 243 q 601 297 546 243 q 655 429 655 351 l 655 943 m 628 429 q 581 316 628 363 q 469 269 535 269 q 357 316 404 269 q 310 429 310 363 l 310 970 l 41 970 l 41 429 q 166 125 41 251 q 469 0 292 0 q 772 125 646 0 q 897 429 897 251 l 897 970 l 628 970 l 628 429 m 529 1068 l 488 1109 l 469 1128 l 450 1109 l 409 1068 l 352 1125 l 469 1242 l 587 1125 l 529 1068 m 314 1125 l 409 1030 l 469 1090 l 529 1030 l 625 1125 l 469 1280 l 314 1125 z "},"Ü":{"ha":938,"x_min":41,"x_max":897,"o":"m 655 943 l 871 943 l 871 429 q 753 144 871 262 q 469 27 635 27 q 185 144 303 27 q 68 429 68 262 l 68 943 l 283 943 l 283 429 q 338 297 283 351 q 469 243 392 243 q 601 297 546 243 q 655 429 655 351 l 655 943 m 628 429 q 581 316 628 363 q 469 269 535 269 q 357 316 404 269 q 310 429 310 363 l 310 970 l 41 970 l 41 429 q 166 125 41 251 q 469 0 292 0 q 772 125 646 0 q 897 429 897 251 l 897 970 l 628 970 l 628 429 m 271 1208 l 375 1208 l 375 1105 l 271 1105 l 271 1208 m 245 1078 l 401 1078 l 401 1235 l 245 1235 l 245 1078 m 564 1208 l 667 1208 l 667 1105 l 564 1105 l 564 1208 m 536 1078 l 694 1078 l 694 1235 l 536 1235 l 536 1078 z "},"Ý":{"ha":982,"x_min":41,"x_max":941,"o":"m 630 970 l 491 728 l 351 970 l 41 970 l 356 422 l 356 0 l 625 0 l 625 422 l 941 970 l 630 970 m 514 715 l 646 943 l 895 943 l 602 435 l 599 429 l 599 27 l 383 27 l 383 429 l 380 435 l 87 943 l 336 943 l 467 715 l 491 674 l 514 715 m 534 1284 l 375 1109 l 475 1019 l 633 1194 l 534 1284 m 413 1112 l 535 1246 l 595 1192 l 473 1057 l 413 1112 z "},"Þ":{"ha":966,"x_min":41,"x_max":925,"o":"m 310 404 l 310 566 l 575 566 q 632 542 608 566 q 656 485 656 518 q 632 428 656 452 q 575 404 608 404 l 310 404 m 283 593 l 283 377 l 575 377 q 651 409 620 377 q 683 485 683 440 q 651 561 683 530 q 575 593 620 593 l 283 593 m 283 161 l 283 27 l 68 27 l 68 943 l 283 943 l 283 808 l 575 808 q 804 713 709 808 q 899 485 899 618 q 804 256 899 351 q 575 161 709 161 l 283 161 m 310 835 l 310 970 l 41 970 l 41 0 l 310 0 l 310 135 l 575 135 q 823 237 720 135 q 925 485 925 340 q 823 732 925 630 q 575 835 720 835 l 310 835 z "},"ß":{"ha":881,"x_min":41,"x_max":840,"o":"m 764 470 q 813 310 813 397 q 730 110 813 193 q 530 27 647 27 l 409 27 l 409 235 l 526 235 q 580 258 557 235 q 602 315 602 281 q 580 372 602 349 q 526 396 557 396 l 463 396 l 463 574 l 526 574 q 580 597 557 574 q 602 654 602 621 q 580 712 602 688 q 526 735 557 735 l 355 735 q 291 697 312 735 q 283 642 281 677 q 283 629 283 633 l 283 27 l 68 27 l 68 666 l 68 672 q 155 864 73 785 q 351 943 237 943 l 530 943 q 730 860 647 943 q 813 660 813 777 q 764 500 813 572 l 753 485 l 764 470 m 351 970 q 136 884 226 970 q 41 673 46 798 l 41 673 l 41 0 l 310 0 l 310 629 q 315 684 310 675 q 355 709 328 709 l 526 709 q 561 692 546 709 q 575 654 575 677 q 561 616 575 632 q 526 601 546 601 l 436 601 l 436 369 l 526 369 q 561 353 546 369 q 575 315 575 338 q 561 277 575 293 q 526 261 546 261 l 382 261 l 382 0 l 530 0 q 749 91 659 0 q 840 310 840 182 q 785 485 840 406 q 840 660 840 564 q 749 879 840 788 q 530 970 659 970 l 351 970 z "},"à":{"ha":1139,"x_min":41,"x_max":1098,"o":"m 420 970 l 41 0 l 330 0 l 382 135 l 758 135 l 810 0 l 1098 0 l 729 970 l 420 970 m 438 943 l 711 943 l 1059 27 l 828 27 l 783 144 l 777 161 l 364 161 l 357 144 l 311 27 l 80 27 l 438 943 m 488 404 l 573 623 l 656 404 l 488 404 m 598 632 l 573 697 l 548 632 l 463 414 l 448 377 l 695 377 l 681 414 l 598 632 m 540 1284 l 440 1194 l 598 1019 l 699 1109 l 540 1284 m 478 1192 l 538 1246 l 661 1112 l 600 1057 l 478 1192 z "},"á":{"ha":1139,"x_min":41,"x_max":1098,"o":"m 483 404 l 566 623 l 650 404 l 483 404 m 591 632 l 565 697 l 541 632 l 457 414 l 444 377 l 690 377 l 675 414 l 591 632 m 410 970 l 41 0 l 329 0 l 380 135 l 756 135 l 808 0 l 1098 0 l 719 970 l 410 970 m 428 943 l 701 943 l 1059 27 l 827 27 l 781 144 l 774 161 l 361 161 l 355 144 l 311 27 l 80 27 l 428 943 m 598 1284 l 440 1109 l 540 1019 l 699 1194 l 598 1284 m 478 1112 l 600 1246 l 661 1192 l 538 1057 l 478 1112 z "},"â":{"ha":1139,"x_min":41,"x_max":1098,"o":"m 420 970 l 41 0 l 330 0 l 382 135 l 758 135 l 810 0 l 1098 0 l 729 970 l 420 970 m 438 943 l 711 943 l 1059 27 l 828 27 l 783 144 l 777 161 l 364 161 l 357 144 l 311 27 l 80 27 l 438 943 m 573 623 l 656 404 l 488 404 l 573 623 m 695 377 l 681 414 l 598 632 l 573 697 l 548 632 l 463 414 l 448 377 l 695 377 m 553 1280 l 397 1125 l 492 1030 l 553 1090 l 612 1030 l 708 1125 l 553 1280 m 435 1125 l 553 1242 l 670 1125 l 612 1068 l 572 1109 l 553 1128 l 534 1109 l 492 1068 l 435 1125 z "},"ã":{"ha":1139,"x_min":41,"x_max":1098,"o":"m 488 404 l 573 623 l 656 404 l 488 404 m 598 632 l 573 697 l 548 632 l 463 414 l 448 377 l 695 377 l 681 414 l 598 632 m 420 970 l 41 0 l 330 0 l 382 135 l 758 135 l 810 0 l 1098 0 l 729 970 l 420 970 m 438 943 l 711 943 l 1059 27 l 828 27 l 783 144 l 777 161 l 364 161 l 357 144 l 311 27 l 80 27 l 438 943 m 772 1117 q 683 1057 734 1069 q 647 1052 665 1052 q 547 1084 597 1052 q 492 1103 517 1103 q 477 1101 484 1103 q 440 1080 457 1097 l 367 1119 q 455 1179 404 1166 q 492 1184 473 1184 q 591 1152 541 1184 q 647 1133 621 1133 q 662 1135 654 1133 q 699 1156 681 1139 l 772 1117 m 656 1160 q 647 1160 652 1160 q 606 1175 629 1160 q 492 1211 549 1211 q 448 1206 469 1211 q 328 1109 369 1185 l 447 1046 q 446 1045 446 1046 q 483 1076 460 1070 q 492 1076 487 1076 q 533 1061 509 1076 q 647 1025 590 1025 q 690 1030 669 1025 q 810 1126 770 1051 l 692 1190 q 692 1191 692 1191 q 656 1160 677 1166 z "},"ä":{"ha":1139,"x_min":41,"x_max":1098,"o":"m 420 970 l 41 0 l 330 0 l 382 135 l 758 135 l 810 0 l 1098 0 l 729 970 l 420 970 m 438 943 l 711 943 l 1059 27 l 828 27 l 783 144 l 777 161 l 364 161 l 357 144 l 311 27 l 80 27 l 438 943 m 573 623 l 656 404 l 488 404 l 573 623 m 695 377 l 681 414 l 598 632 l 573 697 l 548 632 l 463 414 l 448 377 l 695 377 m 408 1050 l 543 1050 l 543 1185 l 408 1185 l 408 1050 m 435 1158 l 515 1158 l 515 1078 l 435 1078 l 435 1158 m 596 1050 l 731 1050 l 731 1185 l 596 1185 l 596 1050 m 623 1158 l 704 1158 l 704 1078 l 623 1078 l 623 1158 z "},"å":{"ha":1139,"x_min":41,"x_max":1098,"o":"m 596 1097 q 588 1078 596 1085 q 569 1069 581 1069 q 550 1078 558 1069 q 543 1097 543 1085 q 550 1116 543 1107 q 569 1124 558 1124 q 588 1116 581 1124 q 596 1097 596 1107 m 515 1097 q 531 1059 515 1074 q 569 1042 547 1042 q 608 1059 591 1042 q 623 1097 623 1074 q 608 1135 623 1119 q 569 1150 591 1150 q 531 1135 547 1150 q 515 1097 515 1119 m 488 404 l 573 623 l 656 404 l 488 404 m 598 632 l 573 697 l 548 632 l 463 414 l 448 377 l 695 377 l 681 414 l 598 632 m 783 144 l 777 161 l 364 161 l 357 144 l 311 27 l 80 27 l 438 943 l 711 943 l 1059 27 l 828 27 l 783 144 m 729 970 l 420 970 l 41 0 l 330 0 l 382 135 l 758 135 l 810 0 l 1098 0 l 729 970 z "},"æ":{"ha":1617,"x_min":41,"x_max":1576,"o":"m 420 970 l 41 0 l 330 0 l 382 135 l 758 135 l 810 0 l 1576 0 l 1576 269 l 1010 269 l 1010 377 l 1396 377 l 1396 593 l 1010 593 l 1010 701 l 1576 701 l 1576 970 l 420 970 m 438 943 l 1550 943 l 1550 728 l 983 728 l 983 566 l 1370 566 l 1370 404 l 983 404 l 983 243 l 1550 243 l 1550 27 l 828 27 l 783 144 l 777 161 l 364 161 l 357 144 l 311 27 l 80 27 l 438 943 m 488 404 l 573 623 l 656 404 l 488 404 m 598 632 l 573 697 l 548 632 l 463 414 l 448 377 l 695 377 l 681 414 l 598 632 z "},"ç":{"ha":909,"x_min":41,"x_max":869,"o":"m 283 482 q 354 311 283 382 q 526 240 425 240 q 677 293 611 240 l 830 140 q 644 40 749 68 l 624 35 l 624 -83 l 408 -83 l 408 39 l 389 45 q 202 158 281 79 q 68 482 68 292 q 202 806 68 672 q 526 940 336 940 q 830 825 701 940 l 677 671 q 526 724 611 724 q 354 654 425 724 q 283 482 283 583 m 526 698 q 678 635 615 698 l 869 825 q 526 967 727 967 q 182 825 325 967 q 41 482 41 683 q 182 139 41 281 q 381 19 267 55 l 381 -111 l 651 -111 l 651 14 q 869 139 777 47 l 678 330 q 526 267 615 267 q 373 330 436 267 q 310 482 310 393 q 373 635 310 572 q 526 698 436 698 z "},"è":{"ha":916,"x_min":41,"x_max":876,"o":"m 41 970 l 41 0 l 876 0 l 876 269 l 310 269 l 310 377 l 696 377 l 696 593 l 310 593 l 310 701 l 876 701 l 876 970 l 41 970 m 68 943 l 849 943 l 849 728 l 283 728 l 283 566 l 669 566 l 669 404 l 283 404 l 283 243 l 849 243 l 849 27 l 68 27 l 68 943 m 429 1284 l 329 1194 l 488 1019 l 587 1109 l 429 1284 m 368 1192 l 427 1246 l 549 1112 l 489 1057 l 368 1192 z "},"é":{"ha":916,"x_min":41,"x_max":876,"o":"m 41 970 l 41 0 l 876 0 l 876 269 l 310 269 l 310 377 l 696 377 l 696 593 l 310 593 l 310 701 l 876 701 l 876 970 l 41 970 m 68 943 l 849 943 l 849 728 l 283 728 l 283 566 l 669 566 l 669 404 l 283 404 l 283 243 l 849 243 l 849 27 l 68 27 l 68 943 m 488 1284 l 329 1109 l 429 1019 l 587 1194 l 488 1284 m 368 1112 l 489 1246 l 549 1192 l 427 1057 l 368 1112 z "},"ê":{"ha":916,"x_min":41,"x_max":876,"o":"m 41 970 l 41 0 l 876 0 l 876 269 l 310 269 l 310 377 l 696 377 l 696 593 l 310 593 l 310 701 l 876 701 l 876 970 l 41 970 m 68 943 l 849 943 l 849 728 l 283 728 l 283 566 l 669 566 l 669 404 l 283 404 l 283 243 l 849 243 l 849 27 l 68 27 l 68 943 m 458 1280 l 303 1125 l 398 1030 l 458 1090 l 518 1030 l 614 1125 l 458 1280 m 341 1125 l 458 1242 l 576 1125 l 518 1068 l 477 1109 l 458 1128 l 439 1109 l 398 1068 l 341 1125 z "},"ë":{"ha":916,"x_min":41,"x_max":876,"o":"m 41 970 l 41 0 l 876 0 l 876 269 l 310 269 l 310 377 l 696 377 l 696 593 l 310 593 l 310 701 l 876 701 l 876 970 l 41 970 m 68 943 l 849 943 l 849 728 l 283 728 l 283 566 l 669 566 l 669 404 l 283 404 l 283 243 l 849 243 l 849 27 l 68 27 l 68 943 m 296 1050 l 431 1050 l 431 1185 l 296 1185 l 296 1050 m 323 1158 l 404 1158 l 404 1078 l 323 1078 l 323 1158 m 485 1050 l 620 1050 l 620 1185 l 485 1185 l 485 1050 m 512 1158 l 593 1158 l 593 1078 l 512 1078 l 512 1158 z "},"ì":{"ha":351,"x_min":41,"x_max":310,"o":"m 41 0 l 310 0 l 310 970 l 41 970 l 41 0 m 68 943 l 283 943 l 283 27 l 68 27 l 68 943 m 146 1284 l 46 1194 l 204 1019 l 304 1109 l 146 1284 m 84 1192 l 144 1246 l 267 1112 l 206 1057 l 84 1192 z "},"í":{"ha":351,"x_min":41,"x_max":310,"o":"m 41 0 l 310 0 l 310 970 l 41 970 l 41 0 m 68 943 l 283 943 l 283 27 l 68 27 l 68 943 m 204 1284 l 46 1109 l 146 1019 l 304 1194 l 204 1284 m 84 1112 l 206 1246 l 267 1192 l 144 1057 l 84 1112 z "},"î":{"ha":392,"x_min":41,"x_max":351,"o":"m 62 0 l 331 0 l 331 970 l 62 970 l 62 0 m 88 943 l 304 943 l 304 27 l 88 27 l 88 943 m 196 1280 l 41 1125 l 136 1030 l 196 1090 l 256 1030 l 351 1125 l 196 1280 m 79 1125 l 196 1242 l 313 1125 l 256 1068 l 215 1109 l 196 1128 l 177 1109 l 136 1068 l 79 1125 z "},"ï":{"ha":405,"x_min":41,"x_max":364,"o":"m 68 0 l 337 0 l 337 970 l 68 970 l 68 0 m 94 943 l 310 943 l 310 27 l 94 27 l 94 943 m 41 1078 l 176 1078 l 176 1213 l 41 1213 l 41 1078 m 68 1185 l 149 1185 l 149 1105 l 68 1105 l 68 1185 m 229 1078 l 364 1078 l 364 1213 l 229 1213 l 229 1078 m 256 1185 l 337 1185 l 337 1105 l 256 1105 l 256 1185 z "},"ð":{"ha":1024,"x_min":41,"x_max":983,"o":"m 121 27 l 121 404 l 68 404 l 68 566 l 121 566 l 121 943 l 498 943 q 823 808 688 943 q 957 485 957 674 q 823 161 957 296 q 498 27 688 27 l 121 27 m 983 485 q 842 827 983 686 q 498 970 699 970 l 94 970 l 94 593 l 41 593 l 41 377 l 94 377 l 94 0 l 498 0 q 842 142 699 0 q 983 485 983 284 m 364 269 l 364 377 l 472 377 l 472 593 l 364 593 l 364 701 l 498 701 q 651 637 588 701 q 714 485 714 574 q 651 332 714 396 q 498 269 588 269 l 364 269 m 337 728 l 337 566 l 445 566 l 445 404 l 337 404 l 337 243 l 498 243 q 670 313 599 243 q 741 485 741 385 q 670 656 741 585 q 498 728 599 728 l 337 728 z "},"ñ":{"ha":916,"x_min":41,"x_max":876,"o":"m 606 970 l 606 508 l 283 970 l 41 970 l 41 0 l 310 0 l 310 462 l 633 0 l 876 0 l 876 970 l 606 970 m 633 943 l 849 943 l 849 27 l 647 27 l 332 477 l 283 547 l 283 27 l 68 27 l 68 943 l 269 943 l 585 492 l 633 422 l 633 943 m 256 1119 q 345 1179 294 1166 q 380 1184 362 1184 q 480 1152 430 1184 q 536 1133 511 1133 q 551 1135 544 1133 q 587 1156 570 1139 l 661 1117 q 572 1057 623 1069 q 536 1052 555 1052 q 437 1084 487 1052 q 380 1103 406 1103 q 366 1101 373 1103 q 329 1080 347 1097 l 256 1119 m 372 1076 q 380 1076 376 1076 q 422 1061 398 1076 q 536 1025 479 1025 q 579 1030 558 1025 q 699 1126 659 1051 l 581 1190 q 581 1191 581 1191 q 545 1160 566 1166 q 536 1160 541 1160 q 494 1175 518 1160 q 380 1211 437 1211 q 338 1206 359 1211 q 217 1109 258 1185 l 336 1046 q 335 1045 336 1046 q 372 1076 350 1070 z "},"ò":{"ha":1051,"x_min":41,"x_max":1010,"o":"m 526 27 q 202 161 336 27 q 68 485 68 296 q 202 808 68 674 q 526 943 336 943 q 849 808 715 943 q 983 485 983 674 q 849 161 983 296 q 526 27 715 27 m 1010 485 q 868 827 1010 686 q 526 970 726 970 q 183 827 325 970 q 41 485 41 686 q 183 142 41 284 q 526 0 325 0 q 868 142 726 0 q 1010 485 1010 284 m 526 269 q 373 332 437 269 q 310 485 310 396 q 373 637 310 574 q 526 701 437 701 q 678 637 614 701 q 741 485 741 574 q 678 332 741 396 q 526 269 614 269 m 526 728 q 354 656 425 728 q 283 485 283 585 q 354 313 283 385 q 526 243 425 243 q 697 313 626 243 q 768 485 768 385 q 697 656 768 585 q 526 728 626 728 m 557 1057 l 435 1192 l 494 1246 l 616 1112 l 557 1057 m 397 1194 l 555 1019 l 654 1109 l 496 1284 l 397 1194 z "},"ó":{"ha":1051,"x_min":41,"x_max":1010,"o":"m 526 943 q 849 808 715 943 q 983 485 983 674 q 849 161 983 296 q 526 27 715 27 q 202 161 336 27 q 68 485 68 296 q 202 808 68 674 q 526 943 336 943 m 41 485 q 183 142 41 284 q 526 0 325 0 q 868 142 726 0 q 1010 485 1010 284 q 868 827 1010 686 q 526 970 726 970 q 183 827 325 970 q 41 485 41 686 m 526 701 q 678 637 614 701 q 741 485 741 574 q 678 332 741 396 q 526 269 614 269 q 373 332 437 269 q 310 485 310 396 q 373 637 310 574 q 526 701 437 701 m 526 243 q 697 313 626 243 q 768 485 768 385 q 697 656 768 585 q 526 728 626 728 q 354 656 425 728 q 283 485 283 585 q 354 313 283 385 q 526 243 425 243 m 494 1057 l 435 1112 l 557 1246 l 616 1192 l 494 1057 m 555 1284 l 397 1109 l 496 1019 l 654 1194 l 555 1284 z "},"ô":{"ha":1051,"x_min":41,"x_max":1010,"o":"m 526 701 q 678 637 614 701 q 741 485 741 574 q 678 332 741 396 q 526 269 614 269 q 373 332 437 269 q 310 485 310 396 q 373 637 310 574 q 526 701 437 701 m 526 243 q 697 313 626 243 q 768 485 768 385 q 697 656 768 585 q 526 728 626 728 q 354 656 425 728 q 283 485 283 585 q 354 313 283 385 q 526 243 425 243 m 526 943 q 849 808 715 943 q 983 485 983 674 q 849 161 983 296 q 526 27 715 27 q 202 161 336 27 q 68 485 68 296 q 202 808 68 674 q 526 943 336 943 m 526 0 q 868 142 726 0 q 1010 485 1010 284 q 868 827 1010 686 q 526 970 726 970 q 183 827 325 970 q 41 485 41 686 q 183 142 41 284 q 526 0 325 0 m 586 1068 l 545 1109 l 526 1128 l 507 1109 l 465 1068 l 408 1125 l 526 1242 l 643 1125 l 586 1068 m 370 1125 l 465 1030 l 526 1090 l 586 1030 l 681 1125 l 526 1280 l 370 1125 z "},"õ":{"ha":1051,"x_min":41,"x_max":1010,"o":"m 526 27 q 202 161 336 27 q 68 485 68 296 q 202 808 68 674 q 526 943 336 943 q 849 808 715 943 q 983 485 983 674 q 849 161 983 296 q 526 27 715 27 m 1010 485 q 868 827 1010 686 q 526 970 726 970 q 183 827 325 970 q 41 485 41 686 q 183 142 41 284 q 526 0 325 0 q 868 142 726 0 q 1010 485 1010 284 m 526 269 q 373 332 437 269 q 310 485 310 396 q 373 637 310 574 q 526 701 437 701 q 678 637 614 701 q 741 485 741 574 q 678 332 741 396 q 526 269 614 269 m 526 728 q 354 656 425 728 q 283 485 283 585 q 354 313 283 385 q 526 243 425 243 q 697 313 626 243 q 768 485 768 385 q 697 656 768 585 q 526 728 626 728 m 323 1119 q 412 1179 361 1166 q 448 1184 429 1184 q 547 1152 497 1184 q 604 1133 578 1133 q 618 1135 611 1133 q 655 1156 637 1139 l 728 1117 q 640 1057 690 1069 q 604 1052 622 1052 q 504 1084 554 1052 q 448 1103 473 1103 q 433 1101 440 1103 q 396 1080 414 1097 l 323 1119 m 439 1076 q 448 1076 444 1076 q 490 1061 466 1076 q 604 1025 546 1025 q 646 1030 625 1025 q 767 1126 726 1051 l 648 1190 q 648 1191 648 1191 q 612 1160 634 1166 q 604 1160 608 1160 q 562 1175 586 1160 q 448 1211 505 1211 q 405 1206 426 1211 q 284 1109 325 1185 l 403 1046 q 403 1045 403 1046 q 439 1076 417 1070 z "},"ö":{"ha":1051,"x_min":41,"x_max":1010,"o":"m 526 701 q 678 637 614 701 q 741 485 741 574 q 678 332 741 396 q 526 269 614 269 q 373 332 437 269 q 310 485 310 396 q 373 637 310 574 q 526 701 437 701 m 526 243 q 697 313 626 243 q 768 485 768 385 q 697 656 768 585 q 526 728 626 728 q 354 656 425 728 q 283 485 283 585 q 354 313 283 385 q 526 243 425 243 m 526 943 q 849 808 715 943 q 983 485 983 674 q 849 161 983 296 q 526 27 715 27 q 202 161 336 27 q 68 485 68 296 q 202 808 68 674 q 526 943 336 943 m 526 0 q 868 142 726 0 q 1010 485 1010 284 q 868 827 1010 686 q 526 970 726 970 q 183 827 325 970 q 41 485 41 686 q 183 142 41 284 q 526 0 325 0 m 391 1158 l 472 1158 l 472 1078 l 391 1078 l 391 1158 m 498 1185 l 364 1185 l 364 1050 l 498 1050 l 498 1185 m 661 1078 l 579 1078 l 579 1158 l 661 1158 l 661 1078 m 687 1185 l 553 1185 l 553 1050 l 687 1050 l 687 1185 z "},"ø":{"ha":1051,"x_min":41,"x_max":1010,"o":"m 526 269 q 502 271 514 269 l 740 509 q 741 485 741 496 q 678 332 741 396 q 526 269 614 269 m 760 568 l 721 528 l 483 290 l 443 250 l 499 244 q 526 243 513 243 q 697 313 626 243 q 768 485 768 385 q 766 511 768 498 l 760 568 m 526 27 q 304 84 408 27 l 287 94 l 273 79 l 240 47 l 88 199 l 120 232 l 134 246 l 125 264 q 68 485 68 367 q 202 808 68 674 q 526 943 336 943 q 747 886 644 943 l 764 876 l 779 890 l 811 922 l 963 770 l 931 738 l 917 724 l 926 706 q 983 485 983 603 q 849 161 983 296 q 526 27 715 27 m 1010 485 q 950 719 1010 610 l 1002 770 l 811 961 l 760 909 q 526 970 650 970 q 183 827 325 970 q 41 485 41 686 q 101 251 41 360 l 50 199 l 240 9 l 292 60 q 526 0 401 0 q 868 142 726 0 q 1010 485 1010 284 m 311 461 q 310 485 310 473 q 373 637 310 574 q 526 701 437 701 q 549 699 537 701 l 311 461 m 608 720 l 552 726 q 526 728 538 728 q 354 656 425 728 q 283 485 283 585 q 285 458 283 472 l 291 403 l 330 442 l 568 680 l 608 720 z "},"ù":{"ha":938,"x_min":41,"x_max":897,"o":"m 469 27 q 185 144 303 27 q 68 429 68 262 l 68 943 l 283 943 l 283 429 q 338 297 283 351 q 469 243 392 243 q 601 297 546 243 q 655 429 655 351 l 655 943 l 871 943 l 871 429 q 753 144 871 262 q 469 27 635 27 m 897 970 l 628 970 l 628 429 q 581 316 628 363 q 469 269 535 269 q 357 316 404 269 q 310 429 310 363 l 310 970 l 41 970 l 41 429 q 166 125 41 251 q 469 0 292 0 q 772 125 646 0 q 897 429 897 251 l 897 970 m 500 1057 l 378 1192 l 438 1246 l 560 1112 l 500 1057 m 340 1194 l 498 1019 l 598 1109 l 440 1284 l 340 1194 z "},"ú":{"ha":938,"x_min":41,"x_max":897,"o":"m 469 27 q 185 144 303 27 q 68 429 68 262 l 68 943 l 283 943 l 283 429 q 338 297 283 351 q 469 243 392 243 q 601 297 546 243 q 655 429 655 351 l 655 943 l 871 943 l 871 429 q 753 144 871 262 q 469 27 635 27 m 897 970 l 628 970 l 628 429 q 581 316 628 363 q 469 269 535 269 q 357 316 404 269 q 310 429 310 363 l 310 970 l 41 970 l 41 429 q 166 125 41 251 q 469 0 292 0 q 772 125 646 0 q 897 429 897 251 l 897 970 m 560 1192 l 438 1057 l 378 1112 l 500 1246 l 560 1192 m 340 1109 l 440 1019 l 598 1194 l 498 1284 l 340 1109 z "},"û":{"ha":938,"x_min":41,"x_max":897,"o":"m 655 943 l 871 943 l 871 429 q 753 144 871 262 q 469 27 635 27 q 185 144 303 27 q 68 429 68 262 l 68 943 l 283 943 l 283 429 q 338 297 283 351 q 469 243 392 243 q 601 297 546 243 q 655 429 655 351 l 655 943 m 628 429 q 581 316 628 363 q 469 269 535 269 q 357 316 404 269 q 310 429 310 363 l 310 970 l 41 970 l 41 429 q 166 125 41 251 q 469 0 292 0 q 772 125 646 0 q 897 429 897 251 l 897 970 l 628 970 l 628 429 m 529 1068 l 488 1109 l 469 1128 l 450 1109 l 409 1068 l 352 1125 l 469 1242 l 587 1125 l 529 1068 m 314 1125 l 409 1030 l 469 1090 l 529 1030 l 625 1125 l 469 1280 l 314 1125 z "},"ü":{"ha":938,"x_min":41,"x_max":897,"o":"m 655 943 l 871 943 l 871 429 q 753 144 871 262 q 469 27 635 27 q 185 144 303 27 q 68 429 68 262 l 68 943 l 283 943 l 283 429 q 338 297 283 351 q 469 243 392 243 q 601 297 546 243 q 655 429 655 351 l 655 943 m 628 429 q 581 316 628 363 q 469 269 535 269 q 357 316 404 269 q 310 429 310 363 l 310 970 l 41 970 l 41 429 q 166 125 41 251 q 469 0 292 0 q 772 125 646 0 q 897 429 897 251 l 897 970 l 628 970 l 628 429 m 271 1208 l 375 1208 l 375 1105 l 271 1105 l 271 1208 m 245 1078 l 401 1078 l 401 1235 l 245 1235 l 245 1078 m 564 1208 l 667 1208 l 667 1105 l 564 1105 l 564 1208 m 536 1078 l 694 1078 l 694 1235 l 536 1235 l 536 1078 z "},"ý":{"ha":982,"x_min":41,"x_max":941,"o":"m 630 970 l 491 728 l 351 970 l 41 970 l 356 422 l 356 0 l 625 0 l 625 422 l 941 970 l 630 970 m 514 715 l 646 943 l 895 943 l 602 435 l 599 429 l 599 27 l 383 27 l 383 429 l 380 435 l 87 943 l 336 943 l 467 715 l 491 674 l 514 715 m 534 1284 l 375 1109 l 475 1019 l 633 1194 l 534 1284 m 413 1112 l 535 1246 l 595 1192 l 473 1057 l 413 1112 z "},"þ":{"ha":966,"x_min":41,"x_max":925,"o":"m 310 404 l 310 566 l 575 566 q 632 542 608 566 q 656 485 656 518 q 632 428 656 452 q 575 404 608 404 l 310 404 m 283 593 l 283 377 l 575 377 q 651 409 620 377 q 683 485 683 440 q 651 561 683 530 q 575 593 620 593 l 283 593 m 283 161 l 283 27 l 68 27 l 68 943 l 283 943 l 283 808 l 575 808 q 804 713 709 808 q 899 485 899 618 q 804 256 899 351 q 575 161 709 161 l 283 161 m 310 835 l 310 970 l 41 970 l 41 0 l 310 0 l 310 135 l 575 135 q 823 237 720 135 q 925 485 925 340 q 823 732 925 630 q 575 835 720 835 l 310 835 z "},"ÿ":{"ha":982,"x_min":41,"x_max":941,"o":"m 630 970 l 491 728 l 351 970 l 41 970 l 356 422 l 356 0 l 625 0 l 625 422 l 941 970 l 630 970 m 514 715 l 646 943 l 895 943 l 602 435 l 599 429 l 599 27 l 383 27 l 383 429 l 380 435 l 87 943 l 336 943 l 467 715 l 491 674 l 514 715 m 267 1078 l 423 1078 l 423 1235 l 267 1235 l 267 1078 m 293 1208 l 397 1208 l 397 1105 l 293 1105 l 293 1208 m 558 1078 l 715 1078 l 715 1235 l 558 1235 l 558 1078 m 585 1208 l 688 1208 l 688 1105 l 585 1105 l 585 1208 z "},"ı":{"ha":351,"x_min":41,"x_max":310,"o":"m 41 0 l 310 0 l 310 970 l 41 970 l 41 0 m 68 943 l 283 943 l 283 27 l 68 27 l 68 943 z "},"‘":{"ha":458,"x_min":41,"x_max":418,"o":"m 283 724 l 68 724 l 68 966 q 155 1175 68 1088 q 364 1262 241 1262 l 391 1262 l 391 1046 l 364 1046 q 307 1023 330 1046 q 283 966 283 1000 l 283 724 m 310 696 l 310 966 q 326 1004 310 988 q 364 1020 342 1020 l 418 1020 l 418 1289 l 364 1289 q 136 1194 231 1289 q 41 966 41 1099 l 41 696 l 310 696 z "},"’":{"ha":458,"x_min":41,"x_max":418,"o":"m 68 1044 l 68 1260 l 94 1260 q 304 1173 217 1260 q 391 964 391 1086 l 391 722 l 176 722 l 176 964 q 152 1021 176 998 q 94 1044 128 1044 l 68 1044 m 418 694 l 418 964 q 323 1192 418 1097 q 94 1287 229 1287 l 41 1287 l 41 1018 l 94 1018 q 133 1002 117 1018 q 149 964 149 986 l 149 694 l 418 694 z "},"“":{"ha":458,"x_min":41,"x_max":418,"o":"m 283 724 l 68 724 l 68 966 q 155 1175 68 1088 q 364 1262 241 1262 l 391 1262 l 391 1046 l 364 1046 q 307 1023 330 1046 q 283 966 283 1000 l 283 724 m 310 696 l 310 966 q 326 1004 310 988 q 364 1020 342 1020 l 418 1020 l 418 1289 l 364 1289 q 136 1194 231 1289 q 41 966 41 1099 l 41 696 l 310 696 z "},"”":{"ha":458,"x_min":41,"x_max":418,"o":"m 68 1044 l 68 1260 l 94 1260 q 304 1173 217 1260 q 391 964 391 1086 l 391 722 l 176 722 l 176 964 q 152 1021 176 998 q 94 1044 128 1044 l 68 1044 m 418 694 l 418 964 q 323 1192 418 1097 q 94 1287 229 1287 l 41 1287 l 41 1018 l 94 1018 q 133 1002 117 1018 q 149 964 149 986 l 149 694 l 418 694 z "},"€":{"ha":984,"x_min":41,"x_max":943,"o":"m 633 606 l 633 525 l 360 525 l 359 500 q 359 469 357 485 l 360 444 l 633 444 l 633 363 l 381 363 l 425 318 l 425 317 q 429 313 428 315 q 600 242 500 242 q 751 295 686 242 l 905 142 q 600 27 775 27 q 277 161 410 27 q 164 345 198 239 l 158 363 l 68 363 l 68 444 l 144 444 l 142 472 q 142 497 142 485 l 144 525 l 68 525 l 68 606 l 158 606 l 164 625 q 277 808 198 730 q 600 943 410 943 q 905 827 775 943 l 751 674 q 600 727 686 727 q 429 656 500 727 q 425 652 427 655 l 425 652 l 381 606 l 633 606 m 600 700 q 753 637 690 700 l 943 827 q 600 969 802 969 q 258 827 399 969 q 138 633 174 745 l 41 633 l 41 498 l 116 498 q 116 471 115 485 l 41 471 l 41 336 l 138 336 q 258 142 174 225 q 600 0 399 0 q 943 142 802 0 l 753 332 q 600 269 690 269 q 448 332 511 269 q 444 336 448 332 l 661 336 l 661 471 l 385 471 q 385 498 385 485 l 661 498 l 661 633 l 444 633 q 448 637 448 637 q 600 700 511 700 z "},"":{"ha":728,"x_min":0,"x_max":0,"o":""},"ﬁ":{"ha":728,"x_min":0,"x_max":0,"o":""},"":{"ha":733,"x_min":0,"x_max":0,"o":""},"ﬂ":{"ha":733,"x_min":0,"x_max":0,"o":""}}}
